M48
;Layer_Color=9474304
;FILE_FORMAT=4:4
METRIC,LZ
;TYPE=PLATED
T01F00S00C0.3000
T03F00S00C0.6500
T04F00S00C0.8000
T05F00S00C1.0000
T06F00S00C1.0160
T07F00S00C1.1000
;TYPE=NON_PLATED
T09F00S00C0.6000
T10F00S00C0.6500
T11F00S00C0.9000
T12F00S00C3.0000
%
T01
X-00085Y00088
Y00095
Y00103
X-00068598Y00095402
X-00086Y00137
X-00073Y00173
X-00074Y00191
X0012Y002
X00112Y00209
X0013Y00192
Y00244
X00143Y00247
Y00253
X00141Y00235
X00149
X00166145Y00242066
X00174Y00242
X00168Y00211
X00185Y00195
X00172Y00179
X00202
X00201Y00212
X00227Y00205
X00232464Y00202264
X00233Y00226
X0024
X00261Y00236
Y0021
X00266Y00203
X00273
X00268Y0019
X00261Y00195
X00259Y00181
X00254Y00171
X00241Y00161
X0025Y0015
X00265Y00154
X00218Y00146
X0019Y0015
X00183Y00112
X00199
X00175Y001
X0015Y00144
X0015Y0005
X00042Y00068
X00039Y00015
X00042Y00287
X00154Y00272
X003485Y002425
X00387Y00253
X0038Y002
X00381Y0019
Y0016
X0035525Y0017125
X0035Y0015
X00319Y0015
X00321Y00187
X0032Y002
X00325Y001
X00375
X00275
X00425
X00436Y00072
X0041Y00142
Y00206
X00425Y002
X00435Y00265
X00415Y00267
X00457Y00282
X005Y0025
X00517Y00265
X0056Y00264
X0055Y0025
X006
X0064Y00252
Y00244
X0065Y0025
X0064Y00261
X00662Y00265
X00675Y002
X00647Y0019
Y00181
Y00172
X00614Y00165
Y00185
X00619Y00212
X00616Y00132
X006Y00115
X0061Y00095
X00561Y00121
X00538Y0006
X00539Y0004
X0065Y0005
X00485Y00146
X00525Y002
X00539302Y00309838
X00535Y00315
X00562Y00321
X00553Y0033
X006Y0032
X0061775Y0030775
X00626Y00308
X00491Y00309
X0049Y00321
X0048
X0047
Y00312
X0046Y00321
X00453Y00335
X00486
X00449Y00298
X00175Y003
X00125
X00075
X00067Y00309
Y00319
X00044Y0034
T03
X-00077Y00244606
X-00057Y00264606
X-00077Y00284606
T04
X00655Y001005
X00675
T05
X-000335Y000988
Y001242
Y001496
Y00175
Y002004
Y002258
Y002512
X0008Y002512
Y002258
Y002004
Y00175
Y001496
Y001242
Y000988
X002119Y003305
X002373
X002627
X002881
T06
X004642Y000196
Y00045
X004896Y00045
Y000196
X00515Y000196
Y00045
T07
X00475Y001
X005
X00525
Y00245
X00475
T09
X0Y0009
Y001
Y0011
Y0012
Y0013
Y0014
Y0015
Y0016
Y0017
Y0018
Y0019
Y002
Y0021
Y0022
Y0023
Y0024
Y0025
Y0026
T10
X0063895Y001461
Y002039
T11
X0068Y00265
Y00295
T12
X000925Y000265
X004075
X00675Y00025
X004075Y003235
X000925
M30
