G04*
G04 #@! TF.GenerationSoftware,Altium Limited,Altium Designer,26.7.1 (11)*
G04*
G04 Layer_Color=16711935*
G04 Board_Origin=31496063|35433071*
%FSLAX44Y44*%
%MOMM*%
G71*
G04*
G04 #@! TF.SameCoordinates,0A52319C-2B61-419E-922E-1FB620AEF816*
G04*
G04*
G04 #@! TF.FilePolarity,Positive*
G04*
G01*
G75*
%ADD10C,0.2000*%
%ADD16C,0.1270*%
%ADD97C,0.0254*%
%ADD98C,0.1000*%
%ADD99C,0.0762*%
D10*
X168110Y113030D02*
G03*
X168110Y113030I-1000J0D01*
G01*
X198930Y335020D02*
G03*
X198930Y335020I-1000J0D01*
G01*
X620280Y136900D02*
G03*
X620280Y136900I-1000J0D01*
G01*
X656870Y248250D02*
G03*
X656870Y248250I-1000J0D01*
G01*
X643140Y112780D02*
G03*
X643140Y112780I-1000J0D01*
G01*
X459000Y251000D02*
G03*
X459000Y251000I-1000J0D01*
G01*
X445809Y19600D02*
G03*
X445809Y19600I-1000J0D01*
G01*
X-66233Y221491D02*
G03*
X-66233Y221491I-1000J0D01*
G01*
D16*
X530000Y175000D02*
G03*
X530000Y175000I-30000J0D01*
G01*
X166000Y135000D02*
X186000D01*
X166000Y119000D02*
X186000D01*
X166000D02*
Y135000D01*
X186000Y119000D02*
Y135000D01*
X628250Y130300D02*
X701750D01*
X628250D02*
Y219700D01*
X701750D01*
Y130300D02*
Y219700D01*
X693000Y281000D02*
Y294000D01*
X707000D01*
Y281000D02*
Y294000D01*
X693000Y281000D02*
X707000D01*
X693000Y246500D02*
Y281000D01*
Y294000D02*
Y313500D01*
X667000D02*
X693000D01*
X667000Y246500D02*
Y313500D01*
Y246500D02*
X693000D01*
X635500Y72500D02*
X694500D01*
X635500D02*
Y117500D01*
X694500D01*
Y72500D02*
Y117500D01*
X437500Y242000D02*
X562500D01*
Y108000D02*
Y242000D01*
X437500Y108000D02*
X562500D01*
X437500D02*
Y242000D01*
X451500Y7280D02*
Y57320D01*
X527700D01*
Y7280D02*
Y57320D01*
X451500Y7280D02*
X527700D01*
X-94483Y223471D02*
X-81983D01*
X-94483Y203471D02*
Y223471D01*
X-81983Y203471D02*
Y223471D01*
X-94483Y203471D02*
X-81983D01*
D97*
X346952Y218561D02*
G03*
X353048Y218561I3048J0D01*
G01*
X315837Y200000D02*
G03*
X315837Y200000I-762J0D01*
G01*
X511406Y314994D02*
G03*
X517502Y314994I3048J0D01*
G01*
X504802Y309000D02*
G03*
X504802Y309000I-762J0D01*
G01*
X598048Y35522D02*
G03*
X591952Y35522I-3048J0D01*
G01*
X149440Y172140D02*
X162140Y159440D01*
X149440Y220983D02*
Y224031D01*
Y220983D02*
Y224031D01*
Y215982D02*
Y219030D01*
Y215982D02*
Y219030D01*
Y210980D02*
Y214028D01*
Y210980D02*
Y214028D01*
Y205979D02*
Y209027D01*
Y205979D02*
Y209027D01*
Y200978D02*
Y204026D01*
Y200978D02*
Y204026D01*
Y195977D02*
Y199025D01*
Y195977D02*
Y199025D01*
Y190975D02*
Y194023D01*
Y190975D02*
Y194023D01*
Y185974D02*
Y189022D01*
Y185974D02*
Y189022D01*
Y180973D02*
Y184021D01*
Y180973D02*
Y184021D01*
Y175972D02*
Y179020D01*
Y175972D02*
Y179020D01*
Y170970D02*
Y174018D01*
Y170970D02*
Y174018D01*
Y165969D02*
Y169017D01*
Y165969D02*
Y169017D01*
X155969Y159440D02*
X159017D01*
X155969D02*
X159017D01*
X160970D02*
X164018D01*
X160970D02*
X164018D01*
X165972D02*
X169020D01*
X165972D02*
X169020D01*
X170973D02*
X174021D01*
X170973D02*
X174021D01*
X175974D02*
X179022D01*
X175974D02*
X179022D01*
X180975D02*
X184023D01*
X180975D02*
X184023D01*
X185977D02*
X189025D01*
X185977D02*
X189025D01*
X190978D02*
X194026D01*
X190978D02*
X194026D01*
X195979D02*
X199027D01*
X195979D02*
X199027D01*
X200980D02*
X204028D01*
X200980D02*
X204028D01*
X205982D02*
X209030D01*
X205982D02*
X209030D01*
X210983D02*
X214031D01*
X210983D02*
X214031D01*
X220560Y165969D02*
Y169017D01*
Y165969D02*
Y169017D01*
Y170970D02*
Y174018D01*
Y170970D02*
Y174018D01*
Y175972D02*
Y179020D01*
Y175972D02*
Y179020D01*
Y180973D02*
Y184021D01*
Y180973D02*
Y184021D01*
Y185974D02*
Y189022D01*
Y185974D02*
Y189022D01*
Y190975D02*
Y194023D01*
Y190975D02*
Y194023D01*
Y195977D02*
Y199025D01*
Y195977D02*
Y199025D01*
Y200978D02*
Y204026D01*
Y200978D02*
Y204026D01*
Y205979D02*
Y209027D01*
Y205979D02*
Y209027D01*
Y210980D02*
Y214028D01*
Y210980D02*
Y214028D01*
Y215982D02*
Y219030D01*
Y215982D02*
Y219030D01*
Y220983D02*
Y224031D01*
Y220983D02*
Y224031D01*
X210983Y230560D02*
X214031D01*
X210983D02*
X214031D01*
X205982D02*
X209030D01*
X205982D02*
X209030D01*
X200980D02*
X204028D01*
X200980D02*
X204028D01*
X195979D02*
X199027D01*
X195979D02*
X199027D01*
X190978D02*
X194026D01*
X190978D02*
X194026D01*
X185977D02*
X189025D01*
X185977D02*
X189025D01*
X180975D02*
X184023D01*
X180975D02*
X184023D01*
X175974D02*
X179022D01*
X175974D02*
X179022D01*
X170973D02*
X174021D01*
X170973D02*
X174021D01*
X165972D02*
X169020D01*
X165972D02*
X169020D01*
X160970D02*
X164018D01*
X160970D02*
X164018D01*
X155969D02*
X159017D01*
X155969D02*
X159017D01*
X220560Y159440D02*
Y230560D01*
X149440D02*
X220560D01*
X149440Y159440D02*
Y230560D01*
Y159440D02*
X220560D01*
X314948Y131439D02*
Y218561D01*
X385052D01*
Y131439D02*
Y218561D01*
X314948Y131439D02*
X385052D01*
X498960Y284006D02*
Y314994D01*
X529948D01*
Y284006D02*
Y314994D01*
X498960Y284006D02*
X529948D01*
X586872Y64478D02*
X603128D01*
X586872Y35522D02*
Y64478D01*
Y35522D02*
X603128D01*
Y64478D01*
X-97312Y107467D02*
X-84612Y120167D01*
X-97312Y70637D02*
Y120167D01*
X-71912D01*
X-97312Y70637D02*
X-71912D01*
Y120167D01*
D98*
X253750Y230250D02*
Y239750D01*
X236250Y230250D02*
Y239750D01*
Y230250D02*
X253750D01*
X236250Y239750D02*
X253750D01*
X116250Y160250D02*
Y169750D01*
X133750Y160250D02*
Y169750D01*
X116250D02*
X133750D01*
X116250Y160250D02*
X133750D01*
X149250Y264750D02*
X158750D01*
X149250Y247250D02*
X158750D01*
Y264750D01*
X149250Y247250D02*
Y264750D01*
X32250Y10250D02*
Y19750D01*
X14750Y10250D02*
Y19750D01*
Y10250D02*
X32250D01*
X14750Y19750D02*
X32250D01*
X35500Y344750D02*
X35500Y335250D01*
X18000D02*
X18000Y344750D01*
X18000Y335250D02*
X35500D01*
X18000Y344750D02*
X35500Y344750D01*
X17750Y282317D02*
Y291817D01*
X35250Y282317D02*
Y291817D01*
X17750D02*
X35250D01*
X17750Y282317D02*
X35250D01*
X475250Y297507D02*
X484750D01*
X475250Y315007D02*
X484750D01*
X475250Y297507D02*
Y315007D01*
X484750Y297507D02*
Y315007D01*
X661250Y330250D02*
Y339750D01*
X678750Y330250D02*
Y339750D01*
X661250D02*
X678750D01*
X661250Y330250D02*
X678750D01*
X461250Y330250D02*
Y339750D01*
X478750Y330250D02*
Y339750D01*
X461250D02*
X478750D01*
X461250Y330250D02*
X478750D01*
X455250Y296559D02*
X464750D01*
X455250Y314059D02*
X464750D01*
X455250Y296559D02*
Y314059D01*
X464750Y296559D02*
Y314059D01*
X608000Y324750D02*
X608000Y315250D01*
X625500Y315250D02*
X625500Y324750D01*
X608000Y324750D02*
X625500Y324750D01*
X608000Y315250D02*
X625500Y315250D01*
X563750Y305250D02*
Y314750D01*
X546250Y305250D02*
Y314750D01*
Y305250D02*
X563750D01*
X546250Y314750D02*
X563750D01*
X545500Y334750D02*
X545500Y325250D01*
X528000D02*
X528000Y334750D01*
X528000Y325250D02*
X545500D01*
X528000Y334750D02*
X545500Y334750D01*
X591000Y300500D02*
X609000D01*
X591000Y269500D02*
X609000D01*
X591000D02*
Y300500D01*
X609000Y269500D02*
Y300500D01*
X636750Y276000D02*
Y294000D01*
X623250Y276000D02*
Y294000D01*
X636750D01*
X623250Y276000D02*
X636750D01*
X466076Y279437D02*
Y284937D01*
X476576Y279437D02*
Y284937D01*
X466076D02*
X476576D01*
X466076Y279437D02*
X476576D01*
X592537Y140250D02*
Y149750D01*
X610037Y140250D02*
Y149750D01*
X592537D02*
X610037D01*
X592537Y140250D02*
X610037D01*
X611250Y245250D02*
X611250Y254750D01*
X628750D02*
X628750Y245250D01*
X611250Y254750D02*
X628750D01*
X611250Y245250D02*
X628750D01*
X592537Y200250D02*
Y209750D01*
X610037Y200250D02*
Y209750D01*
X592537D02*
X610037D01*
X592537Y200250D02*
X610037D01*
X600737Y162000D02*
X608737D01*
X600737Y168000D02*
X608737D01*
Y162000D02*
Y168000D01*
X600737Y162000D02*
Y168000D01*
X600737Y182000D02*
X608737Y182000D01*
X600737Y188000D02*
X608737Y188000D01*
Y182000D02*
Y188000D01*
X600737Y182000D02*
Y188000D01*
X33750Y63183D02*
Y72683D01*
X16250Y63183D02*
Y72683D01*
Y63183D02*
X33750D01*
X16250Y72683D02*
X33750D01*
X605250Y15250D02*
Y24750D01*
X587750Y15250D02*
Y24750D01*
Y15250D02*
X605250D01*
X587750Y24750D02*
X605250D01*
X625250Y29750D02*
X634750D01*
X625250Y47250D02*
X634750D01*
X625250Y29750D02*
Y47250D01*
X634750Y29750D02*
Y47250D01*
X546250Y55250D02*
Y64750D01*
X563750D02*
X563750Y55250D01*
X546250Y64750D02*
X563750D01*
X546250Y55250D02*
X563750D01*
X458750Y260250D02*
Y269750D01*
X441250Y260250D02*
Y269750D01*
Y260250D02*
X458750D01*
X441250Y269750D02*
X458750D01*
X546250Y35250D02*
X546250Y44750D01*
X563750D02*
X563750Y35250D01*
X546250Y44750D02*
X563750D01*
X546250Y35250D02*
X563750D01*
X526250Y75250D02*
Y84750D01*
X543750Y75250D02*
Y84750D01*
X526250D02*
X543750D01*
X526250Y75250D02*
X543750D01*
X473750D02*
Y84750D01*
X456250Y75250D02*
Y84750D01*
Y75250D02*
X473750D01*
X456250Y84750D02*
X473750D01*
X341500Y238250D02*
Y247750D01*
X324000Y238250D02*
Y247750D01*
Y238250D02*
X341500D01*
X324000Y247750D02*
X341500D01*
X509795Y269252D02*
X509795Y259752D01*
X492295D02*
X492295Y269252D01*
X492295Y259752D02*
X509795D01*
X492295Y269252D02*
X509795Y269252D01*
X253750Y205250D02*
Y214750D01*
X236250Y205250D02*
Y214750D01*
Y205250D02*
X253750D01*
X236250Y214750D02*
X253750D01*
X253750Y199750D02*
X253750Y190250D01*
X236250D02*
X236250Y199750D01*
X236250Y190250D02*
X253750D01*
X236250Y199750D02*
X253750Y199750D01*
X115945Y140250D02*
Y149750D01*
X133445Y140250D02*
Y149750D01*
X115945D02*
X133445D01*
X115945Y140250D02*
X133445D01*
X341500Y259250D02*
Y268750D01*
X324000Y259250D02*
Y268750D01*
Y259250D02*
X341500D01*
X324000Y268750D02*
X341500D01*
X553750Y259543D02*
Y269043D01*
X536250Y259543D02*
Y269043D01*
Y259543D02*
X553750D01*
X536250Y269043D02*
X553750D01*
X372750Y259250D02*
Y268750D01*
X355250Y259250D02*
Y268750D01*
Y259250D02*
X372750D01*
X355250Y268750D02*
X372750D01*
X373250Y247750D02*
X373250Y238250D01*
X355750D02*
X355750Y247750D01*
X355750Y238250D02*
X373250D01*
X355750Y247750D02*
X373250Y247750D01*
X276250Y185250D02*
Y194750D01*
X293750Y185250D02*
Y194750D01*
X276250D02*
X293750D01*
X276250Y185250D02*
X293750D01*
X194250Y120250D02*
X203750Y120250D01*
X194250Y137750D02*
X203750Y137750D01*
X194250Y120250D02*
X194250Y137750D01*
X203750Y137750D02*
X203750Y120250D01*
X144987Y136500D02*
X154487Y136500D01*
X144987Y119000D02*
X154487Y119000D01*
Y136500D01*
X144987Y136500D02*
X144987Y119000D01*
X276250Y165250D02*
Y174750D01*
X293750Y165250D02*
Y174750D01*
X276250D02*
X293750D01*
X276250Y165250D02*
X293750D01*
X405250Y149500D02*
X414750D01*
X405250Y167000D02*
X414750D01*
X405250Y149500D02*
Y167000D01*
X414750Y149500D02*
Y167000D01*
X405250Y199043D02*
X414750D01*
X405250Y181543D02*
X414750D01*
Y199043D01*
X405250Y181543D02*
Y199043D01*
X615250Y92750D02*
X624750D01*
X615250Y110250D02*
X624750D01*
X615250Y92750D02*
Y110250D01*
X624750Y92750D02*
Y110250D01*
X595250D02*
X604750D01*
X595250Y92750D02*
X604750D01*
Y110250D01*
X595250Y92750D02*
Y110250D01*
X-61610Y190417D02*
X-52111D01*
X-61610Y207917D02*
X-52111D01*
Y190417D02*
Y207917D01*
X-61610Y190417D02*
Y207917D01*
X-80542Y152750D02*
X-71042D01*
X-80542Y135250D02*
X-71042D01*
X-80542D02*
Y152750D01*
X-71042Y135250D02*
Y152750D01*
X-100299D02*
X-90799D01*
Y135250D02*
Y152750D01*
X-100299Y135250D02*
Y152750D01*
Y135250D02*
X-90799D01*
X-98750Y195593D02*
X-81250Y195593D01*
X-98750Y186094D02*
X-98750Y195593D01*
X-98750Y186094D02*
X-81250Y186094D01*
X-81250Y195593D02*
X-81250Y186094D01*
X-98533Y177277D02*
X-81033Y177277D01*
X-98533Y167777D02*
X-98533Y177277D01*
X-98533Y167777D02*
X-81033D01*
X-81033Y177277D02*
X-81033Y167777D01*
D99*
X150763Y161345D02*
X159227Y169809D01*
Y161345D02*
X150763Y169809D01*
X154994Y161345D02*
Y169809D01*
X159227Y165577D02*
X150763D01*
M02*
