G04*
G04 #@! TF.GenerationSoftware,Altium Limited,Altium Designer,26.7.1 (11)*
G04*
G04 Layer_Color=255*
G04 Board_Origin=31496063|35433071*
%FSLAX44Y44*%
%MOMM*%
G71*
G04*
G04 #@! TF.SameCoordinates,0A52319C-2B61-419E-922E-1FB620AEF816*
G04*
G04*
G04 #@! TF.FilePolarity,Positive*
G04*
G01*
G75*
%ADD17R,0.8500X0.7500*%
%ADD18R,0.2548X0.8080*%
%ADD19R,0.8080X0.2548*%
%ADD20R,0.9500X0.8500*%
%ADD21R,1.0000X0.9000*%
%ADD22R,0.9000X1.0000*%
%ADD23R,0.8500X0.9500*%
%ADD24R,1.2300X1.8600*%
%ADD25R,0.6556X0.5596*%
%ADD26R,1.7526X2.4892*%
%ADD27R,0.8080X0.4072*%
%ADD28R,1.1500X0.6000*%
%ADD29R,1.1500X0.3000*%
%ADD30R,0.8000X1.0000*%
%ADD31R,1.5000X0.7000*%
%ADD32R,0.8000X0.8000*%
%ADD33R,0.8300X0.6250*%
%ADD34R,0.7500X0.6000*%
%ADD35R,0.4000X0.7000*%
%ADD36R,1.2192X0.4572*%
%ADD37O,1.2192X0.4572*%
%ADD39R,5.6000X5.6000*%
%ADD60C,0.6500*%
%ADD61C,0.9000*%
%ADD69C,0.6000*%
%ADD70C,1.5000*%
%ADD71R,2.0000X2.0000*%
%ADD72R,2.0000X1.8000*%
%ADD81C,3.0000*%
%ADD82C,1.5080*%
%ADD83R,1.5080X1.5080*%
%ADD84O,2.1000X1.0000*%
%ADD85O,1.8000X1.0000*%
%ADD86R,1.3080X1.3080*%
%ADD87C,1.3080*%
%ADD88R,1.6500X1.6500*%
%ADD89C,1.6500*%
%ADD90O,3.0000X6.0000*%
%ADD91R,1.3716X1.3716*%
%ADD92C,1.3716*%
D17*
X169250Y132250D02*
D03*
X182750D02*
D03*
Y121750D02*
D03*
X169250D02*
D03*
D18*
X157493Y160480D02*
D03*
X162494D02*
D03*
X167496D02*
D03*
X172497D02*
D03*
X177498D02*
D03*
X182499D02*
D03*
X187501D02*
D03*
X192502D02*
D03*
X197503D02*
D03*
X202504D02*
D03*
X207506D02*
D03*
X212507D02*
D03*
Y229520D02*
D03*
X207506D02*
D03*
X202504D02*
D03*
X197503D02*
D03*
X192502D02*
D03*
X187501D02*
D03*
X182499D02*
D03*
X177498D02*
D03*
X172497D02*
D03*
X167496D02*
D03*
X162494D02*
D03*
X157493D02*
D03*
D19*
X219520Y167493D02*
D03*
Y172494D02*
D03*
Y177496D02*
D03*
Y182497D02*
D03*
Y187498D02*
D03*
Y192499D02*
D03*
Y197501D02*
D03*
Y202502D02*
D03*
Y207503D02*
D03*
Y212504D02*
D03*
Y217506D02*
D03*
Y222507D02*
D03*
X150480D02*
D03*
Y217506D02*
D03*
Y212504D02*
D03*
Y207503D02*
D03*
Y202502D02*
D03*
Y197501D02*
D03*
Y192499D02*
D03*
Y187498D02*
D03*
Y182497D02*
D03*
Y177496D02*
D03*
Y172494D02*
D03*
Y167493D02*
D03*
D20*
X620000Y95000D02*
D03*
X600000D02*
D03*
X480000Y299757D02*
D03*
Y312757D02*
D03*
X630000Y32000D02*
D03*
Y45000D02*
D03*
X620000Y108000D02*
D03*
X600000D02*
D03*
D21*
X199000Y135750D02*
D03*
X154000Y262750D02*
D03*
Y249250D02*
D03*
X460000Y298559D02*
D03*
Y312059D02*
D03*
X199000Y122250D02*
D03*
X149737Y134500D02*
D03*
Y121000D02*
D03*
X410000Y151500D02*
D03*
Y165000D02*
D03*
Y197043D02*
D03*
Y183543D02*
D03*
D22*
X251750Y235000D02*
D03*
X238250D02*
D03*
X118250Y165000D02*
D03*
X131750D02*
D03*
X33500Y340000D02*
D03*
X20000D02*
D03*
X463250Y335000D02*
D03*
X476750D02*
D03*
X610000Y320000D02*
D03*
X623500D02*
D03*
X561750Y310000D02*
D03*
X548250D02*
D03*
X543500Y330000D02*
D03*
X530000D02*
D03*
X31750Y67933D02*
D03*
X18250D02*
D03*
X548250Y60000D02*
D03*
X561750D02*
D03*
X507795Y264502D02*
D03*
X494295D02*
D03*
X251750Y210000D02*
D03*
X238250D02*
D03*
X251750Y195000D02*
D03*
X238250D02*
D03*
X117945Y145000D02*
D03*
X131445D02*
D03*
X370750Y264000D02*
D03*
X357250D02*
D03*
X371250Y243000D02*
D03*
X357750D02*
D03*
X278250Y190000D02*
D03*
X291750D02*
D03*
X278250Y170000D02*
D03*
X291750D02*
D03*
D23*
X30000Y15000D02*
D03*
X17000D02*
D03*
X20000Y287067D02*
D03*
X33000D02*
D03*
X663500Y335000D02*
D03*
X676500D02*
D03*
X594787Y145000D02*
D03*
X607787D02*
D03*
X613500Y250000D02*
D03*
X626500D02*
D03*
X594787Y205000D02*
D03*
X607787D02*
D03*
X603000Y20000D02*
D03*
X590000D02*
D03*
X456500Y265000D02*
D03*
X443500D02*
D03*
X548500Y40000D02*
D03*
X561500D02*
D03*
X528500Y80000D02*
D03*
X541500D02*
D03*
X471500D02*
D03*
X458500D02*
D03*
X339250Y243000D02*
D03*
X326250D02*
D03*
X339250Y264000D02*
D03*
X326250D02*
D03*
X551500Y264293D02*
D03*
X538500D02*
D03*
D24*
X13151Y41466D02*
D03*
X56849D02*
D03*
X56849Y313533D02*
D03*
X13151D02*
D03*
D25*
X388203Y200000D02*
D03*
Y190000D02*
D03*
Y180000D02*
D03*
Y170000D02*
D03*
Y160000D02*
D03*
Y150000D02*
D03*
X311797D02*
D03*
Y160000D02*
D03*
Y170000D02*
D03*
Y180000D02*
D03*
Y190000D02*
D03*
Y200000D02*
D03*
D26*
X514454Y299500D02*
D03*
D27*
X528908Y309000D02*
D03*
Y299500D02*
D03*
Y290000D02*
D03*
X500000D02*
D03*
Y299500D02*
D03*
Y309000D02*
D03*
D28*
X628300Y207000D02*
D03*
Y199000D02*
D03*
Y151000D02*
D03*
Y143000D02*
D03*
D29*
Y192500D02*
D03*
Y187500D02*
D03*
Y182500D02*
D03*
Y177500D02*
D03*
Y157500D02*
D03*
Y162500D02*
D03*
Y167500D02*
D03*
Y172500D02*
D03*
D30*
X690500Y316500D02*
D03*
X669500D02*
D03*
X690500Y243500D02*
D03*
X669500D02*
D03*
D31*
X662500Y302500D02*
D03*
Y287500D02*
D03*
Y257500D02*
D03*
D32*
X588000Y285000D02*
D03*
X612000Y294500D02*
D03*
Y275500D02*
D03*
D33*
X630000Y296125D02*
D03*
Y273875D02*
D03*
D34*
X465576Y282187D02*
D03*
X477076D02*
D03*
D35*
X608237Y165000D02*
D03*
X601237D02*
D03*
X608237Y185000D02*
D03*
X601237D02*
D03*
D36*
X608100Y40500D02*
D03*
D37*
Y50000D02*
D03*
Y59500D02*
D03*
X581900D02*
D03*
Y40500D02*
D03*
D39*
X185000Y195000D02*
D03*
D60*
X638950Y203900D02*
D03*
Y146100D02*
D03*
D61*
X680000Y295000D02*
D03*
Y265000D02*
D03*
D69*
X675000Y25000D02*
D03*
X0Y90000D02*
D03*
Y100000D02*
D03*
Y110000D02*
D03*
Y120000D02*
D03*
Y130000D02*
D03*
Y140000D02*
D03*
Y150000D02*
D03*
Y160000D02*
D03*
Y170000D02*
D03*
Y180000D02*
D03*
Y190000D02*
D03*
Y200000D02*
D03*
Y210000D02*
D03*
Y220000D02*
D03*
Y230000D02*
D03*
Y240000D02*
D03*
Y250000D02*
D03*
Y260000D02*
D03*
D70*
X280000Y243000D02*
D03*
X276000Y217000D02*
D03*
X-77000Y244606D02*
D03*
X-57000Y264606D02*
D03*
X-77000Y284606D02*
D03*
D71*
X62000Y251200D02*
D03*
Y98800D02*
D03*
X-15500D02*
D03*
Y251200D02*
D03*
X80000Y251200D02*
D03*
Y98800D02*
D03*
X-33500D02*
D03*
Y251200D02*
D03*
D72*
X62000Y225800D02*
D03*
Y200400D02*
D03*
Y175000D02*
D03*
Y149600D02*
D03*
Y124200D02*
D03*
X-15500Y124200D02*
D03*
Y149600D02*
D03*
Y175000D02*
D03*
Y200400D02*
D03*
Y225800D02*
D03*
X80000Y225800D02*
D03*
Y200400D02*
D03*
Y175000D02*
D03*
Y149600D02*
D03*
Y124200D02*
D03*
X-33500Y124200D02*
D03*
Y149600D02*
D03*
Y175000D02*
D03*
Y200400D02*
D03*
Y225800D02*
D03*
D81*
X407500Y26500D02*
D03*
X92500D02*
D03*
Y323500D02*
D03*
X407500D02*
D03*
D82*
X288100Y330500D02*
D03*
X262700D02*
D03*
X237300D02*
D03*
D83*
X211900D02*
D03*
D84*
X633950Y218200D02*
D03*
Y131800D02*
D03*
D85*
X675750Y218200D02*
D03*
Y131800D02*
D03*
D86*
X655000Y100500D02*
D03*
D87*
X675000D02*
D03*
D88*
X475000Y245000D02*
D03*
D89*
X525000D02*
D03*
X475000Y100000D02*
D03*
X500000D02*
D03*
X525000D02*
D03*
D90*
X443000Y175000D02*
D03*
X557000D02*
D03*
D91*
X464200Y19600D02*
D03*
D92*
Y45000D02*
D03*
X489600Y19600D02*
D03*
Y45000D02*
D03*
X515000Y19600D02*
D03*
Y45000D02*
D03*
M02*
