G04*
G04 #@! TF.GenerationSoftware,Altium Limited,Altium Designer,26.7.1 (11)*
G04*
G04 Layer_Color=128*
G04 Board_Origin=31496063|35433071*
%FSLAX44Y44*%
%MOMM*%
G71*
G04*
G04 #@! TF.SameCoordinates,0A52319C-2B61-419E-922E-1FB620AEF816*
G04*
G04*
G04 #@! TF.FilePolarity,Positive*
G04*
G01*
G75*
%ADD20R,0.9500X0.8500*%
%ADD21R,1.0000X0.9000*%
%ADD22R,0.9000X1.0000*%
G04:AMPARAMS|DCode=93|XSize=1.19mm|YSize=0.4mm|CornerRadius=0.05mm|HoleSize=0mm|Usage=FLASHONLY|Rotation=180.000|XOffset=0mm|YOffset=0mm|HoleType=Round|Shape=RoundedRectangle|*
%AMROUNDEDRECTD93*
21,1,1.1900,0.3000,0,0,180.0*
21,1,1.0900,0.4000,0,0,180.0*
1,1,0.1000,-0.5450,0.1500*
1,1,0.1000,0.5450,0.1500*
1,1,0.1000,0.5450,-0.1500*
1,1,0.1000,-0.5450,-0.1500*
%
%ADD93ROUNDEDRECTD93*%
%ADD94R,0.5080X0.5080*%
%ADD95R,0.5080X0.5080*%
D20*
X-56860Y192668D02*
D03*
Y205667D02*
D03*
D21*
X-75792Y150750D02*
D03*
Y137250D02*
D03*
X-95549Y150750D02*
D03*
Y137250D02*
D03*
D22*
X-96750Y190844D02*
D03*
X-83250D02*
D03*
X-96533Y172527D02*
D03*
X-83033D02*
D03*
D93*
X-97833Y213471D02*
D03*
Y219971D02*
D03*
Y206971D02*
D03*
X-78633Y219971D02*
D03*
Y213471D02*
D03*
Y206971D02*
D03*
D94*
X-92612Y95402D02*
D03*
Y111402D02*
D03*
Y103402D02*
D03*
Y87402D02*
D03*
Y79402D02*
D03*
X-76612D02*
D03*
Y87402D02*
D03*
Y111402D02*
D03*
Y95402D02*
D03*
Y103402D02*
D03*
D95*
X-84612Y111401D02*
D03*
Y79402D02*
D03*
M02*
