G04*
G04 #@! TF.GenerationSoftware,Altium Limited,Altium Designer,26.7.1 (11)*
G04*
G04 Layer_Color=32896*
G04 Board_Origin=31496063|35433071*
%FSLAX44Y44*%
%MOMM*%
G71*
G04*
G04 #@! TF.SameCoordinates,0A52319C-2B61-419E-922E-1FB620AEF816*
G04*
G04*
G04 #@! TF.FilePolarity,Positive*
G04*
G01*
G75*
%ADD10C,0.2000*%
%ADD11C,0.1524*%
%ADD14C,0.1500*%
%ADD16C,0.1270*%
D10*
X-77000Y294606D02*
G03*
X-77000Y234606I0J-30000D01*
G01*
X-66233Y221491D02*
G03*
X-66233Y221491I-1000J0D01*
G01*
D11*
X-95129Y119932D02*
G03*
X-95129Y119932I-1016J0D01*
G01*
X-101122Y66827D02*
Y123977D01*
X-68102D01*
X-101122Y66827D02*
X-68102D01*
Y123977D01*
D14*
X-63861Y199167D02*
X-49861D01*
X-51781Y186467D02*
X-49861D01*
Y211868D01*
X-51781D02*
X-49861D01*
X-63861D02*
X-61940D01*
X-63861Y186467D02*
Y211868D01*
Y186467D02*
X-61940D01*
X-71792Y158000D02*
X-68792D01*
Y130000D02*
Y158000D01*
X-71792Y130000D02*
X-68792D01*
X-82792D02*
X-79792D01*
X-82792D02*
Y158000D01*
X-79792D01*
X-82792Y144000D02*
X-68792D01*
X-102549Y158000D02*
X-99549D01*
X-102549Y130000D02*
Y158000D01*
Y130000D02*
X-99549D01*
X-102549Y144000D02*
X-88549D01*
X-91549Y158000D02*
X-88549D01*
X-91549Y130000D02*
X-88549D01*
Y158000D01*
X-104000Y194844D02*
Y197843D01*
Y183843D02*
Y186843D01*
X-90000Y183843D02*
Y197843D01*
X-104000D02*
X-76000D01*
Y194844D02*
Y197843D01*
X-104000Y183843D02*
X-76000D01*
Y186843D01*
X-103783Y176527D02*
Y179527D01*
Y165527D02*
Y168527D01*
X-89783Y165527D02*
Y179527D01*
X-103783D02*
X-75783D01*
Y176527D02*
Y179527D01*
X-103783Y165527D02*
X-75783D01*
Y168527D01*
X285168Y308835D02*
X284002Y310001D01*
Y312334D01*
X285168Y313500D01*
X286335D01*
X287501Y312334D01*
Y310001D01*
X288667Y308835D01*
X289834D01*
X291000Y310001D01*
Y312334D01*
X289834Y313500D01*
X284002Y306502D02*
X291000D01*
Y303003D01*
X289834Y301837D01*
X285168D01*
X284002Y303003D01*
Y306502D01*
X291000Y299505D02*
X286335D01*
X284002Y297172D01*
X286335Y294839D01*
X291000D01*
X287501D01*
Y299505D01*
X260168Y308835D02*
X259002Y310001D01*
Y312334D01*
X260168Y313500D01*
X261335D01*
X262501Y312334D01*
Y310001D01*
X263667Y308835D01*
X264834D01*
X266000Y310001D01*
Y312334D01*
X264834Y313500D01*
X260168Y301837D02*
X259002Y303003D01*
Y305336D01*
X260168Y306502D01*
X264834D01*
X266000Y305336D01*
Y303003D01*
X264834Y301837D01*
X259002Y299505D02*
X266000D01*
Y294839D01*
X235168Y308835D02*
X234002Y310001D01*
Y312334D01*
X235168Y313500D01*
X239834D01*
X241000Y312334D01*
Y310001D01*
X239834Y308835D01*
X237501D01*
Y311167D01*
X241000Y306502D02*
X234002D01*
X241000Y301837D01*
X234002D01*
Y299505D02*
X241000D01*
Y296006D01*
X239834Y294839D01*
X235168D01*
X234002Y296006D01*
Y299505D01*
X210168Y313500D02*
X209002Y312334D01*
Y310001D01*
X210168Y308835D01*
X211335D01*
X212501Y310001D01*
Y311168D01*
Y310001D01*
X213667Y308835D01*
X214834D01*
X216000Y310001D01*
Y312334D01*
X214834Y313500D01*
X209002Y306502D02*
X213667D01*
X216000Y304170D01*
X213667Y301837D01*
X209002D01*
X210168Y299505D02*
X209002Y298338D01*
Y296006D01*
X210168Y294839D01*
X211335D01*
X212501Y296006D01*
Y297172D01*
Y296006D01*
X213667Y294839D01*
X214834D01*
X216000Y296006D01*
Y298338D01*
X214834Y299505D01*
X517332Y121165D02*
X518498Y119999D01*
Y117666D01*
X517332Y116500D01*
X516165D01*
X514999Y117666D01*
Y119999D01*
X513833Y121165D01*
X512666D01*
X511500Y119999D01*
Y117666D01*
X512666Y116500D01*
X518498Y123498D02*
X511500D01*
X513833Y125830D01*
X511500Y128163D01*
X518498D01*
X517332Y135161D02*
X518498Y133994D01*
Y131662D01*
X517332Y130495D01*
X512666D01*
X511500Y131662D01*
Y133994D01*
X512666Y135161D01*
X518498Y137493D02*
X511500D01*
Y142158D01*
X518498Y144491D02*
X511500D01*
X513833D01*
X518498Y149156D01*
X514999Y145657D01*
X511500Y149156D01*
X517332Y66165D02*
X518498Y64999D01*
Y62666D01*
X517332Y61500D01*
X516165D01*
X514999Y62666D01*
Y64999D01*
X513833Y66165D01*
X512666D01*
X511500Y64999D01*
Y62666D01*
X512666Y61500D01*
X518498Y68498D02*
X511500D01*
X513833Y70830D01*
X511500Y73163D01*
X518498D01*
Y78994D02*
Y76662D01*
X517332Y75496D01*
X512666D01*
X511500Y76662D01*
Y78994D01*
X512666Y80161D01*
X517332D01*
X518498Y78994D01*
X492332Y121165D02*
X493498Y119999D01*
Y117666D01*
X492332Y116500D01*
X491165D01*
X489999Y117666D01*
Y119999D01*
X488833Y121165D01*
X487666D01*
X486500Y119999D01*
Y117666D01*
X487666Y116500D01*
X493498Y123498D02*
X486500D01*
X488833Y125830D01*
X486500Y128163D01*
X493498D01*
Y130495D02*
X486500D01*
Y133994D01*
X487666Y135161D01*
X492332D01*
X493498Y133994D01*
Y130495D01*
Y137493D02*
Y139826D01*
Y138659D01*
X486500D01*
Y137493D01*
Y139826D01*
X493498Y146824D02*
Y144491D01*
X492332Y143325D01*
X487666D01*
X486500Y144491D01*
Y146824D01*
X487666Y147990D01*
X492332D01*
X493498Y146824D01*
X486500Y61500D02*
X493498D01*
X486500Y66165D01*
X493498D01*
X486500Y68498D02*
X493498D01*
Y71997D01*
X492332Y73163D01*
X489999D01*
X488833Y71997D01*
Y68498D01*
Y70830D02*
X486500Y73163D01*
X492332Y80161D02*
X493498Y78994D01*
Y76662D01*
X492332Y75496D01*
X491165D01*
X489999Y76662D01*
Y78994D01*
X488833Y80161D01*
X487666D01*
X486500Y78994D01*
Y76662D01*
X487666Y75496D01*
X493498Y82493D02*
Y87158D01*
Y84826D01*
X486500D01*
X467332Y116500D02*
X468498Y117666D01*
Y119999D01*
X467332Y121165D01*
X466165D01*
X464999Y119999D01*
Y118833D01*
Y119999D01*
X463833Y121165D01*
X462666D01*
X461500Y119999D01*
Y117666D01*
X462666Y116500D01*
X468498Y123498D02*
X463833D01*
X461500Y125830D01*
X463833Y128163D01*
X468498D01*
X467332Y130495D02*
X468498Y131662D01*
Y133994D01*
X467332Y135161D01*
X466165D01*
X464999Y133994D01*
Y132828D01*
Y133994D01*
X463833Y135161D01*
X462666D01*
X461500Y133994D01*
Y131662D01*
X462666Y130495D01*
X467331Y66165D02*
X468498Y64999D01*
Y62666D01*
X467331Y61500D01*
X462666D01*
X461500Y62666D01*
Y64999D01*
X462666Y66165D01*
X464999D01*
Y63833D01*
X461500Y68498D02*
X468498D01*
X461500Y73163D01*
X468498D01*
Y75496D02*
X461500D01*
Y78994D01*
X462666Y80161D01*
X467331D01*
X468498Y78994D01*
Y75496D01*
X659117Y84011D02*
X654452D01*
X678500Y83833D02*
X673835D01*
X676168Y86165D02*
Y81500D01*
X48500Y43498D02*
Y36500D01*
X45001D01*
X43835Y37666D01*
Y38833D01*
X45001Y39999D01*
X48500D01*
X45001D01*
X43835Y41165D01*
Y42331D01*
X45001Y43498D01*
X48500D01*
X38003D02*
X40336D01*
X41502Y42331D01*
Y37666D01*
X40336Y36500D01*
X38003D01*
X36837Y37666D01*
Y42331D01*
X38003Y43498D01*
X31006D02*
X33338D01*
X34504Y42331D01*
Y37666D01*
X33338Y36500D01*
X31006D01*
X29839Y37666D01*
Y42331D01*
X31006Y43498D01*
X27507D02*
X22842D01*
X25174D01*
Y36500D01*
X48500Y311500D02*
Y318498D01*
X45001D01*
X43835Y317331D01*
Y314999D01*
X45001Y313832D01*
X48500D01*
X46167D02*
X43835Y311500D01*
X36837Y318498D02*
X41502D01*
Y311500D01*
X36837D01*
X41502Y314999D02*
X39170D01*
X29839Y317331D02*
X31006Y318498D01*
X33338D01*
X34504Y317331D01*
Y316165D01*
X33338Y314999D01*
X31006D01*
X29839Y313832D01*
Y312666D01*
X31006Y311500D01*
X33338D01*
X34504Y312666D01*
X22842Y318498D02*
X27507D01*
Y311500D01*
X22842D01*
X27507Y314999D02*
X25174D01*
X20509Y318498D02*
X15844D01*
X18176D01*
Y311500D01*
D16*
X-94483Y225171D02*
X-81983D01*
X-94483Y201771D02*
X-81983D01*
M02*
