G04*
G04 #@! TF.GenerationSoftware,Altium Limited,Altium Designer,26.7.1 (11)*
G04*
G04 Layer_Physical_Order=2*
G04 Layer_Color=16711680*
G04 Board_Origin=31496063|35433071*
%FSLAX44Y44*%
%MOMM*%
G71*
G04*
G04 #@! TF.SameCoordinates,0A52319C-2B61-419E-922E-1FB620AEF816*
G04*
G04*
G04 #@! TF.FilePolarity,Positive*
G04*
G01*
G75*
%ADD20R,0.9500X0.8500*%
%ADD21R,1.0000X0.9000*%
%ADD22R,0.9000X1.0000*%
%ADD60C,0.6500*%
%ADD61C,0.9000*%
%ADD69C,0.6000*%
%ADD70C,1.5000*%
%ADD71R,2.0000X2.0000*%
%ADD72R,2.0000X1.8000*%
%ADD74C,0.3500*%
%ADD75C,0.3000*%
%ADD76C,1.0000*%
%ADD77C,0.6000*%
%ADD79C,0.5000*%
%ADD80C,0.3810*%
%ADD81C,3.0000*%
%ADD82C,1.5080*%
%ADD83R,1.5080X1.5080*%
%ADD84O,2.1000X1.0000*%
%ADD85O,1.8000X1.0000*%
%ADD86R,1.3080X1.3080*%
%ADD87C,1.3080*%
%ADD88R,1.6500X1.6500*%
%ADD89C,1.6500*%
%ADD90O,3.0000X6.0000*%
%ADD91R,1.3716X1.3716*%
%ADD92C,1.3716*%
G04:AMPARAMS|DCode=93|XSize=1.19mm|YSize=0.4mm|CornerRadius=0.05mm|HoleSize=0mm|Usage=FLASHONLY|Rotation=180.000|XOffset=0mm|YOffset=0mm|HoleType=Round|Shape=RoundedRectangle|*
%AMROUNDEDRECTD93*
21,1,1.1900,0.3000,0,0,180.0*
21,1,1.0900,0.4000,0,0,180.0*
1,1,0.1000,-0.5450,0.1500*
1,1,0.1000,0.5450,0.1500*
1,1,0.1000,0.5450,-0.1500*
1,1,0.1000,-0.5450,-0.1500*
%
%ADD93ROUNDEDRECTD93*%
%ADD94R,0.5080X0.5080*%
%ADD95R,0.5080X0.5080*%
G36*
X-47039Y268843D02*
X-48309Y268553D01*
X-49398Y270439D01*
X-51167Y272208D01*
X-53333Y273458D01*
X-55749Y274106D01*
X-58251D01*
X-60667Y273458D01*
X-62833Y272208D01*
X-64602Y270439D01*
X-65852Y268273D01*
X-66500Y265856D01*
Y263355D01*
X-65852Y260939D01*
X-64602Y258773D01*
X-62833Y257004D01*
X-60667Y255753D01*
X-58251Y255106D01*
X-55749D01*
X-53333Y255753D01*
X-51167Y257004D01*
X-49398Y258773D01*
X-48147Y260939D01*
X-47646Y262809D01*
X-46444Y263243D01*
X-45500Y262464D01*
Y239200D01*
X-21500D01*
Y262961D01*
X-5870D01*
X-5164Y261905D01*
X-5500Y261094D01*
Y258906D01*
X-4663Y256884D01*
X-3608Y255830D01*
X-3258Y255000D01*
X-3608Y254170D01*
X-4663Y253116D01*
X-5500Y251094D01*
Y248906D01*
X-4663Y246884D01*
X-3608Y245830D01*
X-3258Y245000D01*
X-3608Y244170D01*
X-4663Y243116D01*
X-5500Y241094D01*
Y238906D01*
X-4663Y236884D01*
X-3608Y235830D01*
X-3258Y235000D01*
X-3608Y234170D01*
X-4663Y233116D01*
X-5500Y231094D01*
Y228906D01*
X-4663Y226884D01*
X-3608Y225830D01*
X-3258Y225000D01*
X-3608Y224170D01*
X-4663Y223116D01*
X-5500Y221094D01*
Y218906D01*
X-4663Y216884D01*
X-3608Y215830D01*
X-3258Y215000D01*
X-3608Y214170D01*
X-4663Y213116D01*
X-5500Y211094D01*
Y208906D01*
X-4663Y206884D01*
X-3608Y205830D01*
X-3258Y205000D01*
X-3608Y204170D01*
X-4663Y203116D01*
X-5500Y201094D01*
Y198906D01*
X-4663Y196884D01*
X-3608Y195830D01*
X-3258Y195000D01*
X-3608Y194170D01*
X-4663Y193116D01*
X-5500Y191094D01*
Y188906D01*
X-4663Y186884D01*
X-3608Y185830D01*
X-3258Y185000D01*
X-3608Y184170D01*
X-4663Y183116D01*
X-5500Y181094D01*
Y178906D01*
X-4663Y176884D01*
X-3608Y175830D01*
X-3258Y175000D01*
X-3608Y174170D01*
X-4663Y173116D01*
X-5500Y171094D01*
Y168906D01*
X-4663Y166884D01*
X-3608Y165830D01*
X-3258Y165000D01*
X-3608Y164170D01*
X-4663Y163116D01*
X-5500Y161094D01*
Y158906D01*
X-4663Y156884D01*
X-3608Y155830D01*
X-3258Y155000D01*
X-3608Y154170D01*
X-4663Y153116D01*
X-5500Y151094D01*
Y148906D01*
X-4663Y146884D01*
X-3608Y145830D01*
X-3258Y145000D01*
X-3608Y144170D01*
X-4663Y143116D01*
X-5500Y141094D01*
Y138906D01*
X-4663Y136884D01*
X-3608Y135830D01*
X-3258Y135000D01*
X-3608Y134170D01*
X-4663Y133116D01*
X-5500Y131094D01*
Y128906D01*
X-4663Y126884D01*
X-3608Y125830D01*
X-3258Y125000D01*
X-3608Y124170D01*
X-4663Y123116D01*
X-5500Y121094D01*
Y118906D01*
X-4663Y116884D01*
X-3608Y115830D01*
X-3258Y115000D01*
X-3608Y114170D01*
X-4663Y113116D01*
X-5500Y111094D01*
Y108906D01*
X-4663Y106884D01*
X-3608Y105830D01*
X-3258Y105000D01*
X-3608Y104170D01*
X-4663Y103116D01*
X-5500Y101094D01*
Y98906D01*
X-4663Y96884D01*
X-3608Y95830D01*
X-3258Y95000D01*
X-3608Y94170D01*
X-4663Y93116D01*
X-5500Y91094D01*
Y88906D01*
X-5164Y88095D01*
X-5870Y87039D01*
X-20960D01*
Y97530D01*
X-33500D01*
Y98800D01*
X-34770D01*
Y111340D01*
X-45952D01*
X-46040Y111340D01*
X-47222Y111552D01*
Y118700D01*
X-46770Y119026D01*
X-45500Y118375D01*
Y113200D01*
X-21500D01*
Y135200D01*
X-45500D01*
Y127978D01*
X-47800D01*
X-47800Y127978D01*
X-49246Y127690D01*
X-50471Y126871D01*
X-52952Y124390D01*
X-54222Y124916D01*
Y135435D01*
X-46673Y142984D01*
X-45500Y142498D01*
Y138600D01*
X-21500D01*
Y160600D01*
X-45500D01*
Y153358D01*
X-46846Y153090D01*
X-48071Y152271D01*
X-59952Y140390D01*
X-61222Y140916D01*
Y149435D01*
X-52329Y158329D01*
X-51510Y159554D01*
X-51222Y161000D01*
Y178335D01*
X-46673Y182884D01*
X-45500Y182398D01*
Y164000D01*
X-21500D01*
Y186000D01*
X-41898D01*
X-42384Y187173D01*
X-40158Y189400D01*
X-21500D01*
Y211400D01*
X-45500D01*
Y194742D01*
X-57671Y182571D01*
X-58490Y181346D01*
X-58778Y179900D01*
Y162565D01*
X-67671Y153671D01*
X-68490Y152446D01*
X-68778Y151000D01*
Y145014D01*
X-68792Y143750D01*
X-82792D01*
Y141634D01*
X-84122D01*
X-85005Y142000D01*
X-86995D01*
X-87279Y141882D01*
X-88549Y142623D01*
Y143750D01*
X-102549D01*
Y130750D01*
X-99933D01*
Y124549D01*
X-99599Y122871D01*
X-98649Y121448D01*
X-96996Y119796D01*
Y115942D01*
X-97152D01*
Y106862D01*
X-88072D01*
Y115942D01*
X-88228D01*
Y121612D01*
X-88561Y123290D01*
X-89512Y124712D01*
X-91164Y126365D01*
Y130750D01*
X-88549D01*
Y131501D01*
X-87493Y132206D01*
X-86995Y132000D01*
X-85005D01*
X-84062Y132391D01*
X-82792Y131542D01*
Y130750D01*
X-80176D01*
Y126794D01*
X-80663Y126065D01*
X-80997Y124388D01*
Y115942D01*
X-81152D01*
Y106862D01*
Y98862D01*
Y90862D01*
Y82862D01*
Y74862D01*
X-72072D01*
Y75624D01*
X-66598D01*
X-65153Y75912D01*
X-63927Y76730D01*
X-56048Y84610D01*
X-54778Y84084D01*
Y69565D01*
X-59565Y64778D01*
X-86435D01*
X-88834Y67177D01*
Y74862D01*
X-88072D01*
Y83942D01*
X-97152D01*
Y74862D01*
X-96390D01*
Y65612D01*
X-96102Y64166D01*
X-95283Y62941D01*
X-90671Y58329D01*
X-89446Y57510D01*
X-88000Y57222D01*
X-88000Y57222D01*
X-58000D01*
X-56554Y57510D01*
X-55329Y58329D01*
X-48329Y65329D01*
X-48309Y65358D01*
X-47039Y64973D01*
Y52039D01*
X-100000Y52039D01*
X-100784D01*
X-102322Y52345D01*
X-103771Y52945D01*
X-105075Y53816D01*
X-106184Y54925D01*
X-107055Y56229D01*
X-107655Y57678D01*
X-107961Y59216D01*
X-107961Y60000D01*
X-107961Y287300D01*
Y288350D01*
X-107551Y290410D01*
X-106748Y292350D01*
X-105581Y294096D01*
X-104096Y295581D01*
X-102350Y296748D01*
X-100410Y297551D01*
X-98350Y297961D01*
X-97300Y297961D01*
X-47039D01*
Y268843D01*
D02*
G37*
G36*
X687300Y347961D02*
X688350D01*
X690410Y347551D01*
X692350Y346748D01*
X694096Y345581D01*
X695581Y344096D01*
X696748Y342350D01*
X697551Y340410D01*
X697961Y338350D01*
X697961Y337300D01*
X697961Y12700D01*
Y11650D01*
X697551Y9590D01*
X696748Y7650D01*
X695581Y5904D01*
X694096Y4419D01*
X692350Y3252D01*
X690410Y2449D01*
X688350Y2039D01*
X687300Y2039D01*
X503698Y2039D01*
X503313Y3309D01*
X503779Y3621D01*
X511532Y11374D01*
X511581Y11346D01*
X513834Y10742D01*
X516166D01*
X518419Y11346D01*
X520439Y12512D01*
X522088Y14161D01*
X523254Y16181D01*
X523858Y18434D01*
Y20766D01*
X523254Y23019D01*
X522088Y25039D01*
X520439Y26688D01*
X518419Y27854D01*
X516166Y28458D01*
X513834D01*
X511581Y27854D01*
X509561Y26688D01*
X507912Y25039D01*
X506746Y23019D01*
X506142Y20766D01*
Y18434D01*
X506746Y16181D01*
X506774Y16132D01*
X500006Y9365D01*
X453394D01*
X448365Y14394D01*
Y42000D01*
X448365Y42000D01*
X448108Y43288D01*
X447379Y44379D01*
X447379Y44379D01*
X439379Y52379D01*
X438288Y53109D01*
X437000Y53365D01*
X437000Y53365D01*
X390368D01*
X389649Y54635D01*
X389649Y54635D01*
X461028D01*
X461195Y53365D01*
X460781Y53254D01*
X458761Y52088D01*
X457112Y50439D01*
X455946Y48419D01*
X455342Y46166D01*
Y43834D01*
X455946Y41581D01*
X457112Y39561D01*
X458761Y37912D01*
X460781Y36746D01*
X463034Y36142D01*
X465366D01*
X467619Y36746D01*
X469639Y37912D01*
X471288Y39561D01*
X471761Y40381D01*
X473436Y40741D01*
X473635Y40598D01*
Y31000D01*
X473635Y31000D01*
X473891Y29712D01*
X474621Y28621D01*
X481108Y22133D01*
X480742Y20766D01*
Y18434D01*
X481346Y16181D01*
X482512Y14161D01*
X484161Y12512D01*
X486181Y11346D01*
X488434Y10742D01*
X490766D01*
X493019Y11346D01*
X495039Y12512D01*
X496688Y14161D01*
X497854Y16181D01*
X498458Y18434D01*
Y20766D01*
X497854Y23019D01*
X496688Y25039D01*
X495039Y26688D01*
X493019Y27854D01*
X490766Y28458D01*
X488434D01*
X486181Y27854D01*
X485371Y27387D01*
X480365Y32394D01*
Y40740D01*
X481635Y41080D01*
X482512Y39561D01*
X484161Y37912D01*
X486181Y36746D01*
X488434Y36142D01*
X490766D01*
X493019Y36746D01*
X495039Y37912D01*
X496688Y39561D01*
X497854Y41581D01*
X498458Y43834D01*
Y46166D01*
X497854Y48419D01*
X496688Y50439D01*
X495039Y52088D01*
X493019Y53254D01*
X490766Y53858D01*
X488434D01*
X486181Y53254D01*
X484161Y52088D01*
X482512Y50439D01*
X481635Y48920D01*
X480365Y49260D01*
Y53000D01*
X480365Y53000D01*
X480108Y54288D01*
X479379Y55379D01*
X479379Y55379D01*
X474393Y60365D01*
X474394Y60425D01*
X474785Y61635D01*
X493606D01*
X506774Y48468D01*
X506746Y48419D01*
X506142Y46166D01*
Y43834D01*
X506746Y41581D01*
X507912Y39561D01*
X509561Y37912D01*
X511581Y36746D01*
X513834Y36142D01*
X516166D01*
X518419Y36746D01*
X520439Y37912D01*
X522088Y39561D01*
X523254Y41581D01*
X523858Y43834D01*
Y46166D01*
X523254Y48419D01*
X522088Y50439D01*
X520439Y52088D01*
X518419Y53254D01*
X516166Y53858D01*
X513834D01*
X511581Y53254D01*
X511532Y53226D01*
X497379Y67379D01*
X496288Y68109D01*
X495000Y68365D01*
X495000Y68365D01*
X441095D01*
X440432Y69635D01*
X441000Y71005D01*
Y72995D01*
X440239Y74832D01*
X438832Y76239D01*
X436995Y77000D01*
X435005D01*
X433168Y76239D01*
X432294Y75365D01*
X382000D01*
X380712Y75108D01*
X379621Y74379D01*
X379621Y74379D01*
X368606Y63365D01*
X259394D01*
X243365Y79394D01*
Y150000D01*
X243109Y151288D01*
X242379Y152379D01*
X242379Y152379D01*
X240028Y154730D01*
X240554Y156000D01*
X241995D01*
X243832Y156761D01*
X244706Y157635D01*
X259905D01*
X260568Y156365D01*
X260000Y154995D01*
Y153005D01*
X260761Y151168D01*
X262168Y149761D01*
X264005Y149000D01*
X265995D01*
X267832Y149761D01*
X268706Y150635D01*
X288606D01*
X291621Y147621D01*
X291621Y147621D01*
X292712Y146891D01*
X294000Y146635D01*
X315294D01*
X316168Y145761D01*
X318005Y145000D01*
X319995D01*
X321832Y145761D01*
X323239Y147168D01*
X324000Y149005D01*
Y150995D01*
X323239Y152832D01*
X321832Y154239D01*
X319995Y155000D01*
X318005D01*
X316168Y154239D01*
X315294Y153365D01*
X295394D01*
X292393Y156365D01*
X292394Y156425D01*
X292785Y157635D01*
X376567D01*
X376761Y157168D01*
X378168Y155761D01*
X380005Y155000D01*
X381995D01*
X383832Y155761D01*
X385239Y157168D01*
X386000Y159005D01*
Y160995D01*
X385239Y162832D01*
X383832Y164239D01*
X381995Y165000D01*
X380005D01*
X378471Y164365D01*
X244706D01*
X243832Y165239D01*
X241995Y166000D01*
X240005D01*
X238168Y165239D01*
X236761Y163832D01*
X236000Y161995D01*
Y160554D01*
X234730Y160028D01*
X227379Y167379D01*
X226288Y168109D01*
X225000Y168365D01*
X225000Y168365D01*
X168394D01*
X161365Y175394D01*
Y219502D01*
X161108Y220790D01*
X160379Y221882D01*
X160379Y221882D01*
X152365Y229896D01*
Y231294D01*
X153239Y232168D01*
X154000Y234006D01*
Y235995D01*
X153239Y237832D01*
X151832Y239239D01*
X149995Y240000D01*
X148005D01*
X146168Y239239D01*
X145000Y238071D01*
X144070Y239001D01*
X144257Y240046D01*
X144404Y240326D01*
X144775Y240375D01*
X146429Y241060D01*
X147850Y242150D01*
X148940Y243571D01*
X149625Y245225D01*
X149859Y247000D01*
Y253000D01*
Y311159D01*
X162841Y324141D01*
X202360D01*
Y320960D01*
X206141D01*
Y306000D01*
X206375Y304225D01*
X207060Y302571D01*
X208150Y301150D01*
X218150Y291150D01*
X219571Y290060D01*
X221225Y289375D01*
X223000Y289141D01*
X416000D01*
X417775Y289375D01*
X419429Y290060D01*
X420850Y291150D01*
X443841Y314141D01*
X464332D01*
X465038Y313085D01*
X465000Y312995D01*
Y311005D01*
X465761Y309168D01*
X467168Y307761D01*
X469005Y307000D01*
X470995D01*
X472832Y307761D01*
X474239Y309168D01*
X475000Y311005D01*
Y312995D01*
X474962Y313085D01*
X475668Y314141D01*
X487281D01*
X487800Y312871D01*
X486761Y311832D01*
X486000Y309995D01*
Y308005D01*
X486761Y306168D01*
X488168Y304761D01*
X490005Y304000D01*
X491995D01*
X493832Y304761D01*
X495239Y306168D01*
X496000Y308005D01*
Y309995D01*
X495239Y311832D01*
X493832Y313239D01*
X493092Y313546D01*
Y314920D01*
X493429Y315060D01*
X494850Y316150D01*
X495940Y317571D01*
X496625Y319225D01*
X496859Y321000D01*
X496625Y322775D01*
X495940Y324429D01*
X494850Y325850D01*
X493429Y326940D01*
X491775Y327625D01*
X490000Y327859D01*
X441000D01*
X439225Y327625D01*
X437571Y326940D01*
X436150Y325850D01*
X422572Y312271D01*
X421585Y313081D01*
X423008Y315211D01*
X424328Y318396D01*
X425000Y321776D01*
Y325224D01*
X424328Y328605D01*
X423008Y331789D01*
X421093Y334656D01*
X418656Y337093D01*
X415789Y339008D01*
X412605Y340327D01*
X409224Y341000D01*
X405776D01*
X402395Y340327D01*
X399211Y339008D01*
X396344Y337093D01*
X393907Y334656D01*
X391992Y331789D01*
X390672Y328605D01*
X390000Y325224D01*
Y321776D01*
X390672Y318396D01*
X391992Y315211D01*
X393907Y312344D01*
X396344Y309907D01*
X399211Y307992D01*
X402395Y306672D01*
X405776Y306000D01*
X409224D01*
X412605Y306672D01*
X415789Y307992D01*
X417919Y309415D01*
X418729Y308428D01*
X413159Y302859D01*
X225841D01*
X219859Y308841D01*
Y320960D01*
X221440D01*
Y340040D01*
X202360D01*
Y337859D01*
X160000D01*
X158225Y337625D01*
X156571Y336940D01*
X155150Y335850D01*
X138150Y318850D01*
X137060Y317429D01*
X136375Y315775D01*
X136141Y314000D01*
Y265859D01*
X109000D01*
X107225Y265625D01*
X105571Y264940D01*
X104150Y263850D01*
X98359Y258059D01*
X92000D01*
Y263200D01*
X84384D01*
Y274000D01*
X84051Y275678D01*
X83100Y277100D01*
X70100Y290100D01*
X68678Y291050D01*
X67000Y291384D01*
X44481D01*
X42995Y292000D01*
X41005D01*
X39168Y291239D01*
X37761Y289832D01*
X37000Y287995D01*
Y286005D01*
X37761Y284168D01*
X39168Y282761D01*
X41005Y282000D01*
X42995D01*
X44481Y282616D01*
X65184D01*
X75616Y272184D01*
Y263200D01*
X68000D01*
Y239200D01*
X92000D01*
Y244341D01*
X101200D01*
X102975Y244575D01*
X104629Y245260D01*
X106050Y246350D01*
X111841Y252141D01*
X136141D01*
Y247000D01*
X136375Y245225D01*
X137060Y243571D01*
X138150Y242150D01*
X139457Y241147D01*
X139517Y240627D01*
X139409Y239753D01*
X138168Y239239D01*
X136761Y237832D01*
X136000Y235995D01*
Y234006D01*
X136761Y232168D01*
X137025Y231904D01*
X136963Y231592D01*
X135585Y231174D01*
X133365Y233394D01*
Y240294D01*
X134239Y241168D01*
X135000Y243005D01*
Y244995D01*
X134239Y246832D01*
X132832Y248239D01*
X130995Y249000D01*
X129005D01*
X127168Y248239D01*
X125761Y246832D01*
X125000Y244995D01*
Y243005D01*
X125761Y241168D01*
X126635Y240294D01*
Y232000D01*
X126635Y232000D01*
X126891Y230712D01*
X127621Y229621D01*
X143248Y213993D01*
X143155Y213400D01*
X141799Y212959D01*
X126579Y228179D01*
X125488Y228909D01*
X124200Y229165D01*
X124200Y229165D01*
X92000D01*
Y236800D01*
X68000D01*
Y214800D01*
X92000D01*
Y222435D01*
X122806D01*
X136635Y208606D01*
Y167000D01*
X136635Y167000D01*
X136891Y165712D01*
X137621Y164621D01*
X160621Y141621D01*
X160621Y141621D01*
X161712Y140892D01*
X163000Y140635D01*
X163000Y140635D01*
X192160D01*
X192160Y140635D01*
X193448Y140892D01*
X194539Y141621D01*
X197554Y144635D01*
X204280D01*
X205295Y143621D01*
X205295Y143621D01*
X206387Y142891D01*
X207674Y142635D01*
X207674Y142635D01*
X214294D01*
X215168Y141761D01*
X217005Y141000D01*
X218995D01*
X220832Y141761D01*
X222239Y143168D01*
X222365Y143473D01*
X223635Y143221D01*
Y71000D01*
X223635Y71000D01*
X223892Y69712D01*
X224621Y68621D01*
X245704Y47538D01*
X245218Y46365D01*
X145394D01*
X123365Y68394D01*
Y180606D01*
X129758Y187000D01*
X130995D01*
X132832Y187761D01*
X134239Y189168D01*
X135000Y191005D01*
Y192995D01*
X134239Y194832D01*
X132832Y196239D01*
X130995Y197000D01*
X129005D01*
X127168Y196239D01*
X125761Y194832D01*
X125000Y192995D01*
Y191758D01*
X117635Y184393D01*
X117575Y184394D01*
X116365Y184785D01*
Y191606D01*
X119758Y195000D01*
X120995D01*
X122832Y195761D01*
X124239Y197168D01*
X125000Y199005D01*
Y200995D01*
X124239Y202832D01*
X122832Y204239D01*
X120995Y205000D01*
X119005D01*
X117168Y204239D01*
X115761Y202832D01*
X115000Y200995D01*
Y199758D01*
X110621Y195379D01*
X109892Y194288D01*
X109635Y193000D01*
X109635Y193000D01*
Y137394D01*
X99806Y127565D01*
X92000D01*
Y135200D01*
X68000D01*
Y113200D01*
X92000D01*
Y120835D01*
X101200D01*
X101200Y120835D01*
X102488Y121091D01*
X103579Y121821D01*
X115365Y133607D01*
X115425Y133606D01*
X116635Y133215D01*
Y67000D01*
X116635Y67000D01*
X116891Y65712D01*
X117621Y64621D01*
X141621Y40621D01*
X142712Y39892D01*
X144000Y39635D01*
X144000Y39635D01*
X382000D01*
X382000Y39635D01*
X383288Y39892D01*
X384379Y40621D01*
X390394Y46635D01*
X435606D01*
X441635Y40606D01*
Y13000D01*
X441635Y13000D01*
X441892Y11712D01*
X442621Y10621D01*
X449621Y3621D01*
X449621Y3621D01*
X450087Y3309D01*
X449905Y2382D01*
X449702Y2039D01*
X10000Y2039D01*
X9216D01*
X7678Y2345D01*
X6229Y2945D01*
X4925Y3816D01*
X3816Y4925D01*
X2945Y6229D01*
X2345Y7678D01*
X2039Y9216D01*
X2039Y10000D01*
Y84892D01*
X3115Y85337D01*
X4663Y86884D01*
X5500Y88906D01*
Y91094D01*
X4663Y93116D01*
X3608Y94170D01*
X3258Y95000D01*
X3608Y95830D01*
X4663Y96884D01*
X5500Y98906D01*
Y101094D01*
X4663Y103116D01*
X3608Y104170D01*
X3258Y105000D01*
X3608Y105830D01*
X4663Y106884D01*
X5500Y108906D01*
Y111094D01*
X4663Y113116D01*
X3608Y114170D01*
X3258Y115000D01*
X3608Y115830D01*
X4663Y116884D01*
X5500Y118906D01*
Y121094D01*
X4663Y123116D01*
X3608Y124170D01*
X3258Y125000D01*
X3608Y125830D01*
X4663Y126884D01*
X5500Y128906D01*
Y131094D01*
X4663Y133116D01*
X3608Y134170D01*
X3258Y135000D01*
X3608Y135830D01*
X4663Y136884D01*
X5500Y138906D01*
Y141094D01*
X4663Y143116D01*
X3608Y144170D01*
X3258Y145000D01*
X3608Y145830D01*
X4663Y146884D01*
X5500Y148906D01*
Y151094D01*
X4663Y153116D01*
X3608Y154170D01*
X3258Y155000D01*
X3608Y155830D01*
X4663Y156884D01*
X5500Y158906D01*
Y161094D01*
X4663Y163116D01*
X3608Y164170D01*
X3258Y165000D01*
X3608Y165830D01*
X4663Y166884D01*
X5500Y168906D01*
Y171094D01*
X4663Y173116D01*
X3608Y174170D01*
X3258Y175000D01*
X3608Y175830D01*
X4663Y176884D01*
X5500Y178906D01*
Y181094D01*
X4663Y183116D01*
X3608Y184170D01*
X3258Y185000D01*
X3608Y185830D01*
X4663Y186884D01*
X5500Y188906D01*
Y191094D01*
X4663Y193116D01*
X3608Y194170D01*
X3258Y195000D01*
X3608Y195830D01*
X4663Y196884D01*
X5500Y198906D01*
Y201094D01*
X4663Y203116D01*
X3608Y204170D01*
X3258Y205000D01*
X3608Y205830D01*
X4663Y206884D01*
X5500Y208906D01*
Y211094D01*
X4663Y213116D01*
X3608Y214170D01*
X3258Y215000D01*
X3608Y215830D01*
X4663Y216884D01*
X5500Y218906D01*
Y221094D01*
X4663Y223116D01*
X3608Y224170D01*
X3258Y225000D01*
X3608Y225830D01*
X4663Y226884D01*
X5500Y228906D01*
Y231094D01*
X4663Y233116D01*
X3608Y234170D01*
X3258Y235000D01*
X3608Y235830D01*
X4663Y236884D01*
X5500Y238906D01*
Y241094D01*
X4663Y243116D01*
X3608Y244170D01*
X3258Y245000D01*
X3608Y245830D01*
X4663Y246884D01*
X5500Y248906D01*
Y251094D01*
X4663Y253116D01*
X3608Y254170D01*
X3258Y255000D01*
X3608Y255830D01*
X4663Y256884D01*
X5500Y258906D01*
Y261094D01*
X4663Y263116D01*
X3115Y264663D01*
X2039Y265109D01*
X2039Y337300D01*
Y338350D01*
X2449Y340410D01*
X3252Y342350D01*
X4419Y344096D01*
X5904Y345581D01*
X7650Y346748D01*
X9590Y347551D01*
X11650Y347961D01*
X12700Y347961D01*
X687300Y347961D01*
D02*
G37*
%LPC*%
G36*
X-75749Y294106D02*
X-78251D01*
X-80667Y293458D01*
X-82833Y292208D01*
X-84602Y290439D01*
X-85789Y288383D01*
X-92894D01*
X-92894Y288383D01*
X-94340Y288096D01*
X-95565Y287277D01*
X-100504Y282338D01*
X-101323Y281113D01*
X-101611Y279667D01*
Y224020D01*
X-103283D01*
X-104258Y223826D01*
X-105085Y223273D01*
X-105638Y222446D01*
X-105832Y221471D01*
Y218471D01*
X-105638Y217496D01*
X-105085Y216669D01*
X-104258Y216116D01*
X-103283Y215922D01*
X-92383D01*
X-91408Y216116D01*
X-90581Y216669D01*
X-90028Y217496D01*
X-89834Y218471D01*
Y221471D01*
X-90028Y222446D01*
X-90581Y223273D01*
X-91408Y223826D01*
X-92383Y224020D01*
X-94055D01*
Y278102D01*
X-91329Y280828D01*
X-85789D01*
X-84602Y278773D01*
X-82833Y277004D01*
X-80667Y275753D01*
X-78251Y275106D01*
X-75749D01*
X-73333Y275753D01*
X-71167Y277004D01*
X-69398Y278773D01*
X-68147Y280939D01*
X-67500Y283355D01*
Y285856D01*
X-68147Y288273D01*
X-69398Y290439D01*
X-71167Y292208D01*
X-73333Y293458D01*
X-75749Y294106D01*
D02*
G37*
G36*
Y254106D02*
X-78251D01*
X-80667Y253458D01*
X-82833Y252208D01*
X-84602Y250439D01*
X-85853Y248273D01*
X-86500Y245856D01*
Y243355D01*
X-85853Y240939D01*
X-84602Y238773D01*
X-82833Y237004D01*
X-80667Y235753D01*
X-78251Y235106D01*
X-75749D01*
X-73333Y235753D01*
X-71167Y237004D01*
X-69398Y238773D01*
X-68147Y240939D01*
X-67500Y243355D01*
Y245856D01*
X-68147Y248273D01*
X-69398Y250439D01*
X-71167Y252208D01*
X-73333Y253458D01*
X-75749Y254106D01*
D02*
G37*
G36*
X-21500Y236800D02*
X-45500D01*
Y229578D01*
X-64200D01*
X-65646Y229290D01*
X-66871Y228471D01*
X-71594Y223749D01*
X-72092D01*
X-72208Y223826D01*
X-73183Y224020D01*
X-84083D01*
X-85058Y223826D01*
X-85885Y223273D01*
X-86438Y222446D01*
X-86632Y221471D01*
Y218471D01*
X-86438Y217496D01*
X-85920Y216721D01*
X-86438Y215947D01*
X-86632Y214971D01*
Y211971D01*
X-86438Y210996D01*
X-85920Y210221D01*
X-86438Y209446D01*
X-86632Y208471D01*
Y207982D01*
X-87301Y206982D01*
X-87634Y205304D01*
Y197843D01*
X-89750D01*
Y183843D01*
X-88035D01*
Y179527D01*
X-89533D01*
Y165527D01*
X-76533D01*
Y167633D01*
X-73473D01*
X-71600Y168005D01*
X-70961Y168433D01*
X-70168Y168761D01*
X-68761Y170168D01*
X-68000Y172005D01*
Y173995D01*
X-68761Y175832D01*
X-70168Y177239D01*
X-72005Y178000D01*
X-73995D01*
X-75263Y177475D01*
X-76533Y177940D01*
Y179527D01*
X-78247D01*
Y183843D01*
X-76750D01*
Y185584D01*
X-75694Y186290D01*
X-74995Y186000D01*
X-73005D01*
X-71168Y186761D01*
X-69761Y188168D01*
X-69000Y190005D01*
Y191995D01*
X-69761Y193832D01*
X-71168Y195239D01*
X-73005Y196000D01*
X-74995D01*
X-75694Y195710D01*
X-76750Y196416D01*
Y197843D01*
X-78866D01*
Y202587D01*
X-78633D01*
X-76955Y202920D01*
X-76953Y202922D01*
X-73183D01*
X-72208Y203116D01*
X-71381Y203669D01*
X-70828Y204496D01*
X-70634Y205471D01*
Y208471D01*
X-69582Y209693D01*
X-63611D01*
Y199417D01*
X-50111D01*
Y211917D01*
X-53405D01*
X-53510Y212446D01*
X-54329Y213671D01*
X-54329Y213671D01*
X-56800Y216142D01*
X-58025Y216961D01*
X-59471Y217249D01*
X-65613D01*
X-66139Y218519D01*
X-62635Y222022D01*
X-45500D01*
Y214800D01*
X-21500D01*
Y236800D01*
D02*
G37*
G36*
X-92383Y211020D02*
X-103283D01*
X-104258Y210826D01*
X-105085Y210273D01*
X-105638Y209446D01*
X-105832Y208471D01*
Y205471D01*
X-105638Y204496D01*
X-105085Y203669D01*
X-104258Y203116D01*
X-103283Y202922D01*
X-92383D01*
X-91408Y203116D01*
X-90581Y203669D01*
X-90028Y204496D01*
X-89834Y205471D01*
Y208471D01*
X-90028Y209446D01*
X-90581Y210273D01*
X-91408Y210826D01*
X-92383Y211020D01*
D02*
G37*
G36*
X-32230Y111340D02*
Y100070D01*
X-20960D01*
Y111340D01*
X-32230D01*
D02*
G37*
G36*
X238460Y339310D02*
X236140D01*
X233899Y338710D01*
X232644Y337985D01*
X233718Y336910D01*
X230890Y334082D01*
X229815Y335156D01*
X229090Y333900D01*
X228490Y331660D01*
Y329340D01*
X229090Y327099D01*
X229815Y325844D01*
X230890Y326918D01*
X233718Y324090D01*
X232644Y323015D01*
X233899Y322290D01*
X236140Y321690D01*
X238460D01*
X240700Y322290D01*
X241956Y323015D01*
X240882Y324090D01*
X243710Y326918D01*
X244785Y325844D01*
X245510Y327099D01*
X246110Y329340D01*
Y331660D01*
X245510Y333900D01*
X244785Y335156D01*
X243710Y334082D01*
X240882Y336910D01*
X241956Y337985D01*
X240700Y338710D01*
X238460Y339310D01*
D02*
G37*
G36*
X486995Y340000D02*
X485005D01*
X483168Y339239D01*
X481761Y337832D01*
X481000Y335995D01*
Y334005D01*
X481761Y332168D01*
X483168Y330761D01*
X485005Y330000D01*
X486995D01*
X488832Y330761D01*
X490239Y332168D01*
X491000Y334005D01*
Y335995D01*
X490239Y337832D01*
X488832Y339239D01*
X486995Y340000D01*
D02*
G37*
G36*
X289356Y340040D02*
X286844D01*
X284418Y339390D01*
X282242Y338134D01*
X280466Y336358D01*
X279210Y334182D01*
X278560Y331756D01*
Y329244D01*
X279210Y326818D01*
X280466Y324642D01*
X282242Y322866D01*
X284418Y321610D01*
X286844Y320960D01*
X289356D01*
X291782Y321610D01*
X293958Y322866D01*
X295734Y324642D01*
X296990Y326818D01*
X297640Y329244D01*
Y331756D01*
X296990Y334182D01*
X295734Y336358D01*
X293958Y338134D01*
X291782Y339390D01*
X289356Y340040D01*
D02*
G37*
G36*
X263956D02*
X261444D01*
X259018Y339390D01*
X256842Y338134D01*
X255066Y336358D01*
X253810Y334182D01*
X253160Y331756D01*
Y329244D01*
X253810Y326818D01*
X255066Y324642D01*
X256842Y322866D01*
X259018Y321610D01*
X261444Y320960D01*
X263956D01*
X266382Y321610D01*
X268558Y322866D01*
X270334Y324642D01*
X271590Y326818D01*
X272240Y329244D01*
Y331756D01*
X271590Y334182D01*
X270334Y336358D01*
X268558Y338134D01*
X266382Y339390D01*
X263956Y340040D01*
D02*
G37*
G36*
X94224Y341000D02*
X90776D01*
X87395Y340327D01*
X84211Y339008D01*
X81344Y337093D01*
X78907Y334656D01*
X76992Y331789D01*
X75672Y328605D01*
X75000Y325224D01*
Y321776D01*
X75672Y318396D01*
X76992Y315211D01*
X78907Y312344D01*
X81344Y309907D01*
X84211Y307992D01*
X87395Y306672D01*
X90776Y306000D01*
X94224D01*
X97605Y306672D01*
X100789Y307992D01*
X103656Y309907D01*
X106093Y312344D01*
X108008Y315211D01*
X109327Y318396D01*
X110000Y321776D01*
Y325224D01*
X109327Y328605D01*
X108008Y331789D01*
X106093Y334656D01*
X103656Y337093D01*
X100789Y339008D01*
X97605Y340327D01*
X94224Y341000D01*
D02*
G37*
G36*
X535000Y321859D02*
X533225Y321625D01*
X531571Y320940D01*
X530150Y319850D01*
X529060Y318429D01*
X528375Y316775D01*
X528141Y315000D01*
X528375Y313225D01*
X529060Y311571D01*
X530150Y310150D01*
X537400Y302900D01*
X538821Y301810D01*
X540475Y301125D01*
X542250Y300891D01*
X625750D01*
X627525Y301125D01*
X629179Y301810D01*
X630600Y302900D01*
X630850Y303150D01*
X631940Y304571D01*
X632625Y306225D01*
X632859Y308000D01*
X632625Y309775D01*
X631940Y311429D01*
X630850Y312850D01*
X629429Y313940D01*
X627775Y314625D01*
X626000Y314859D01*
X624225Y314625D01*
X624185Y314609D01*
X545091D01*
X539850Y319850D01*
X538429Y320940D01*
X536775Y321625D01*
X535000Y321859D01*
D02*
G37*
G36*
X680922Y302000D02*
X679078D01*
X677298Y301523D01*
X675702Y300601D01*
X674399Y299298D01*
X673477Y297702D01*
X673000Y295922D01*
Y294078D01*
X673477Y292298D01*
X674399Y290702D01*
X675702Y289399D01*
X677298Y288477D01*
X679078Y288000D01*
X680922D01*
X682702Y288477D01*
X684298Y289399D01*
X685601Y290702D01*
X686523Y292298D01*
X687000Y294078D01*
Y295922D01*
X686523Y297702D01*
X685601Y299298D01*
X684298Y300601D01*
X682702Y301523D01*
X680922Y302000D01*
D02*
G37*
G36*
X435995Y270000D02*
X434005D01*
X432168Y269239D01*
X430761Y267832D01*
X430000Y265995D01*
Y264005D01*
X430761Y262168D01*
X432168Y260761D01*
X434005Y260000D01*
X435995D01*
X437832Y260761D01*
X439239Y262168D01*
X440000Y264005D01*
Y265995D01*
X439239Y267832D01*
X437832Y269239D01*
X435995Y270000D01*
D02*
G37*
G36*
X680922Y272000D02*
X679078D01*
X677298Y271523D01*
X675702Y270601D01*
X674399Y269298D01*
X673477Y267702D01*
X673000Y265922D01*
Y264078D01*
X673477Y262298D01*
X674399Y260702D01*
X675702Y259399D01*
X677298Y258477D01*
X679078Y258000D01*
X680922D01*
X682702Y258477D01*
X684298Y259399D01*
X685601Y260702D01*
X686523Y262298D01*
X687000Y264078D01*
Y265922D01*
X686523Y267702D01*
X685601Y269298D01*
X684298Y270601D01*
X682702Y271523D01*
X680922Y272000D01*
D02*
G37*
G36*
X679750Y224593D02*
X677750D01*
Y222995D01*
X673750D01*
Y224593D01*
X671750D01*
X669304Y224106D01*
X668925Y223853D01*
X670069Y222710D01*
X667240Y219881D01*
X666097Y221025D01*
X665844Y220646D01*
X665357Y218200D01*
X665844Y215754D01*
X666097Y215375D01*
X667240Y216518D01*
X670069Y213690D01*
X668925Y212547D01*
X669304Y212294D01*
X671750Y211807D01*
X673750D01*
Y213405D01*
X677750D01*
Y211807D01*
X679750D01*
X682196Y212294D01*
X682575Y212547D01*
X681432Y213690D01*
X684260Y216518D01*
X685403Y215375D01*
X685656Y215754D01*
X686143Y218200D01*
X685656Y220646D01*
X685403Y221025D01*
X684260Y219881D01*
X681432Y222710D01*
X682575Y223853D01*
X682196Y224106D01*
X679750Y224593D01*
D02*
G37*
G36*
X639450D02*
X635950D01*
Y222995D01*
X631950D01*
Y224593D01*
X628450D01*
X626003Y224106D01*
X625625Y223853D01*
X626768Y222710D01*
X623940Y219881D01*
X622797Y221025D01*
X622544Y220646D01*
X622057Y218200D01*
X622544Y215754D01*
X622797Y215375D01*
X623940Y216518D01*
X626768Y213690D01*
X625625Y212547D01*
X626003Y212294D01*
X628450Y211807D01*
X631950D01*
Y213405D01*
X635950D01*
Y211807D01*
X639450D01*
X641896Y212294D01*
X642275Y212547D01*
X641132Y213690D01*
X643960Y216518D01*
X645103Y215375D01*
X645356Y215754D01*
X645843Y218200D01*
X645356Y220646D01*
X645103Y221025D01*
X643960Y219881D01*
X641132Y222710D01*
X642275Y223853D01*
X641896Y224106D01*
X639450Y224593D01*
D02*
G37*
G36*
X389571Y281119D02*
X182929D01*
X181544Y280844D01*
X180370Y280059D01*
X165062Y264752D01*
X164277Y263578D01*
X164002Y262192D01*
Y247343D01*
X163300Y246292D01*
X161906Y244898D01*
X161145Y243061D01*
Y241071D01*
X161906Y239234D01*
X163312Y237827D01*
X165150Y237066D01*
X167139D01*
X168977Y237827D01*
X170039Y238890D01*
X171168Y237761D01*
X173005Y237000D01*
X174995D01*
X176832Y237761D01*
X178239Y239168D01*
X179000Y241005D01*
Y242995D01*
X178239Y244832D01*
X176896Y246175D01*
X176866Y246327D01*
X176241Y247262D01*
Y258622D01*
X186499Y268881D01*
X386001D01*
X394941Y259941D01*
X394941Y259941D01*
X432441Y222441D01*
X433615Y221656D01*
X433722Y221635D01*
X433597Y220365D01*
X410394D01*
X396365Y234394D01*
Y247000D01*
X396365Y247000D01*
X396109Y248288D01*
X395379Y249379D01*
X392000Y252758D01*
Y253995D01*
X391239Y255832D01*
X389832Y257239D01*
X387995Y258000D01*
X386005D01*
X384168Y257239D01*
X382761Y255832D01*
X382000Y253995D01*
Y252005D01*
X382761Y250168D01*
X384168Y248761D01*
X386005Y248000D01*
X387242D01*
X389635Y245606D01*
Y233000D01*
X389635Y233000D01*
X389892Y231712D01*
X390070Y231445D01*
X389155Y230529D01*
X388288Y231108D01*
X387000Y231365D01*
X387000Y231365D01*
X355394D01*
X351865Y234894D01*
Y238794D01*
X352739Y239668D01*
X353500Y241505D01*
Y243495D01*
X352739Y245332D01*
X351332Y246739D01*
X349495Y247500D01*
X347505D01*
X345668Y246739D01*
X344261Y245332D01*
X343500Y243495D01*
Y241505D01*
X344261Y239668D01*
X345135Y238794D01*
Y233500D01*
X345135Y233500D01*
X345392Y232212D01*
X346121Y231121D01*
X351621Y225621D01*
X352712Y224891D01*
X354000Y224635D01*
X385606D01*
X400621Y209621D01*
X400621Y209621D01*
X401712Y208892D01*
X403000Y208635D01*
X403000Y208635D01*
X486606D01*
X493635Y201606D01*
Y141394D01*
X472621Y120379D01*
X471892Y119288D01*
X471635Y118000D01*
X471635Y118000D01*
Y109710D01*
X471044Y109551D01*
X468706Y108202D01*
X466798Y106294D01*
X465448Y103956D01*
X464750Y101349D01*
Y98651D01*
X465448Y96044D01*
X466798Y93706D01*
X468706Y91798D01*
X471044Y90449D01*
X473651Y89750D01*
X476349D01*
X478956Y90449D01*
X481294Y91798D01*
X483202Y93706D01*
X484552Y96044D01*
X485250Y98651D01*
Y101349D01*
X484552Y103956D01*
X483202Y106294D01*
X481294Y108202D01*
X478956Y109551D01*
X478365Y109710D01*
Y116606D01*
X499379Y137621D01*
X499379Y137621D01*
X499561Y137893D01*
X500231Y137910D01*
X500891Y137712D01*
X501621Y136621D01*
X521635Y116606D01*
Y109710D01*
X521044Y109551D01*
X518706Y108202D01*
X516798Y106294D01*
X515448Y103956D01*
X514750Y101349D01*
Y98651D01*
X515448Y96044D01*
X516798Y93706D01*
X518706Y91798D01*
X521044Y90449D01*
X523651Y89750D01*
X526349D01*
X528956Y90449D01*
X531294Y91798D01*
X533202Y93706D01*
X534552Y96044D01*
X535250Y98651D01*
Y101349D01*
X534552Y103956D01*
X533202Y106294D01*
X531294Y108202D01*
X528956Y109551D01*
X528365Y109710D01*
Y118000D01*
X528365Y118000D01*
X528108Y119288D01*
X527379Y120379D01*
X527379Y120379D01*
X507365Y140394D01*
Y204000D01*
X507365Y204000D01*
X507108Y205288D01*
X506379Y206379D01*
X493379Y219379D01*
X492288Y220109D01*
X492278Y220110D01*
X492403Y221381D01*
X566001D01*
X569941Y217441D01*
X569941Y217440D01*
X578881Y208501D01*
Y179979D01*
X579156Y178594D01*
X579941Y177420D01*
X588491Y168870D01*
X589665Y168085D01*
X591050Y167809D01*
X608465D01*
X609375Y166900D01*
X609000Y165995D01*
Y164005D01*
X609761Y162168D01*
X611168Y160761D01*
X613005Y160000D01*
X614995D01*
X616832Y160761D01*
X618239Y162168D01*
X619000Y164005D01*
Y165995D01*
X618239Y167832D01*
X616879Y169193D01*
X616866Y169257D01*
X616081Y170431D01*
X612883Y173629D01*
X612763Y174116D01*
X612771Y174853D01*
X612890Y175271D01*
X616081Y178462D01*
X616866Y179636D01*
X617141Y181022D01*
Y181070D01*
X618239Y182168D01*
X619000Y184005D01*
Y185995D01*
X618239Y187832D01*
X616832Y189239D01*
X614995Y190000D01*
X613005D01*
X611168Y189239D01*
X609761Y187832D01*
X609000Y185995D01*
Y184005D01*
X609699Y182318D01*
X608501Y181119D01*
X593549D01*
X591119Y183549D01*
Y212071D01*
X590844Y213456D01*
X590059Y214630D01*
X572130Y232559D01*
X570956Y233344D01*
X569571Y233619D01*
X527037D01*
X526870Y234890D01*
X528956Y235449D01*
X531294Y236798D01*
X533202Y238706D01*
X534552Y241044D01*
X535250Y243651D01*
Y246349D01*
X534552Y248956D01*
X533202Y251294D01*
X531294Y253202D01*
X528956Y254552D01*
X526349Y255250D01*
X523651D01*
X521044Y254552D01*
X518706Y253202D01*
X516798Y251294D01*
X515448Y248956D01*
X514750Y246349D01*
Y243651D01*
X515448Y241044D01*
X516798Y238706D01*
X518706Y236798D01*
X521044Y235449D01*
X523130Y234890D01*
X522963Y233619D01*
X485587D01*
X485250Y234750D01*
X485250Y234890D01*
Y255250D01*
X464750D01*
Y248365D01*
X438394D01*
X420000Y266758D01*
Y267995D01*
X419239Y269832D01*
X417832Y271239D01*
X415995Y272000D01*
X414005D01*
X412168Y271239D01*
X410761Y269832D01*
X410000Y267995D01*
Y266005D01*
X410761Y264168D01*
X412168Y262761D01*
X414005Y262000D01*
X415242D01*
X434621Y242621D01*
X434621Y242621D01*
X435712Y241891D01*
X437000Y241635D01*
X464750D01*
Y234890D01*
X464750Y234750D01*
X464413Y233619D01*
X438570D01*
X392131Y280059D01*
X390956Y280844D01*
X389571Y281119D01*
D02*
G37*
G36*
X640000Y267859D02*
X638225Y267625D01*
X636571Y266940D01*
X635150Y265850D01*
X634060Y264429D01*
X633375Y262775D01*
X633141Y261000D01*
Y244000D01*
X633375Y242225D01*
X634060Y240571D01*
X635150Y239150D01*
X647141Y227159D01*
Y204841D01*
X645970Y203670D01*
X644700Y204196D01*
Y205044D01*
X643825Y207157D01*
X642207Y208775D01*
X640094Y209650D01*
X637806D01*
X635693Y208775D01*
X634075Y207157D01*
X633200Y205044D01*
Y202756D01*
X634075Y200643D01*
X635693Y199025D01*
X637806Y198150D01*
X639570D01*
X640409Y197135D01*
X640459Y196977D01*
X640375Y196775D01*
X640141Y195000D01*
Y190000D01*
Y181000D01*
Y172000D01*
X640375Y170225D01*
X641060Y168571D01*
X642150Y167150D01*
X643571Y166060D01*
X645225Y165375D01*
X647000Y165141D01*
X648775Y165375D01*
X650429Y166060D01*
X651850Y167150D01*
X652940Y168571D01*
X653625Y170225D01*
X653859Y172000D01*
Y181000D01*
Y192159D01*
X658850Y197150D01*
X659940Y198571D01*
X660625Y200225D01*
X660859Y202000D01*
Y230000D01*
X660625Y231775D01*
X659940Y233429D01*
X658850Y234850D01*
X646859Y246841D01*
Y261000D01*
X646625Y262775D01*
X645940Y264429D01*
X644850Y265850D01*
X643429Y266940D01*
X641775Y267625D01*
X640000Y267859D01*
D02*
G37*
G36*
X557000Y206349D02*
X553811Y206035D01*
X550744Y205104D01*
X547917Y203593D01*
X546993Y202835D01*
X548047Y201781D01*
X545219Y198953D01*
X544165Y200007D01*
X543406Y199083D01*
X541896Y196256D01*
X540965Y193190D01*
X540651Y190000D01*
Y177000D01*
X542205D01*
Y173000D01*
X540651D01*
Y160000D01*
X540965Y156811D01*
X541896Y153744D01*
X543406Y150917D01*
X544165Y149993D01*
X545219Y151047D01*
X548047Y148219D01*
X546993Y147165D01*
X547917Y146407D01*
X550744Y144896D01*
X553811Y143965D01*
X557000Y143651D01*
X560190Y143965D01*
X563256Y144896D01*
X566083Y146407D01*
X567007Y147165D01*
X565953Y148219D01*
X568781Y151047D01*
X569835Y149993D01*
X570593Y150917D01*
X572104Y153744D01*
X573035Y156811D01*
X573349Y160000D01*
Y173000D01*
X571795D01*
Y177000D01*
X573349D01*
Y190000D01*
X573035Y193190D01*
X572104Y196256D01*
X570593Y199083D01*
X569835Y200007D01*
X568781Y198953D01*
X565953Y201781D01*
X567007Y202835D01*
X566083Y203593D01*
X563256Y205104D01*
X560190Y206035D01*
X557000Y206349D01*
D02*
G37*
G36*
X443000D02*
X439810Y206035D01*
X436744Y205104D01*
X433917Y203593D01*
X432993Y202835D01*
X434047Y201781D01*
X431219Y198953D01*
X430165Y200007D01*
X429407Y199083D01*
X427896Y196256D01*
X426965Y193190D01*
X426651Y190000D01*
Y177000D01*
X428205D01*
Y173000D01*
X426651D01*
Y160000D01*
X426965Y156811D01*
X427896Y153744D01*
X429407Y150917D01*
X430165Y149993D01*
X431219Y151047D01*
X434047Y148219D01*
X432993Y147165D01*
X433917Y146407D01*
X436744Y144896D01*
X439810Y143965D01*
X443000Y143651D01*
X446189Y143965D01*
X449256Y144896D01*
X452083Y146407D01*
X453007Y147165D01*
X451953Y148219D01*
X454781Y151047D01*
X455835Y149993D01*
X456593Y150917D01*
X458104Y153744D01*
X459035Y156811D01*
X459349Y160000D01*
Y173000D01*
X457795D01*
Y177000D01*
X459349D01*
Y190000D01*
X459035Y193190D01*
X458104Y196256D01*
X456593Y199083D01*
X455835Y200007D01*
X454781Y198953D01*
X451953Y201781D01*
X453007Y202835D01*
X452083Y203593D01*
X449256Y205104D01*
X446189Y206035D01*
X443000Y206349D01*
D02*
G37*
G36*
X244000Y242624D02*
X229000D01*
X227852Y242148D01*
X223852Y238148D01*
X223376Y237000D01*
Y222673D01*
X221327Y220624D01*
X215000D01*
X213852Y220148D01*
X213376Y219000D01*
Y201000D01*
X213852Y199852D01*
X215000Y199376D01*
X226954D01*
X227593Y198950D01*
X227795Y198909D01*
X228376Y198328D01*
Y191000D01*
X228852Y189852D01*
X230852Y187852D01*
X232000Y187376D01*
X244000D01*
X245148Y187852D01*
X245624Y189000D01*
Y198616D01*
X263519D01*
X265005Y198000D01*
X266995D01*
X268481Y198616D01*
X270519D01*
X272005Y198000D01*
X273995D01*
X275832Y198761D01*
X277239Y200168D01*
X278000Y202005D01*
Y203995D01*
X277239Y205832D01*
X275832Y207239D01*
X273995Y208000D01*
X272005D01*
X270519Y207384D01*
X268481D01*
X266995Y208000D01*
X265005D01*
X263519Y207384D01*
X245624D01*
Y241000D01*
X245148Y242148D01*
X244000Y242624D01*
D02*
G37*
G36*
X92000Y211400D02*
X68000D01*
Y189400D01*
X92000D01*
Y211400D01*
D02*
G37*
G36*
Y186000D02*
X68000D01*
Y164000D01*
X92000D01*
Y186000D01*
D02*
G37*
G36*
X112995Y214000D02*
X111005D01*
X109168Y213239D01*
X107761Y211832D01*
X107000Y209995D01*
Y208758D01*
X101621Y203379D01*
X100892Y202288D01*
X100635Y201000D01*
X100635Y201000D01*
Y159394D01*
X94206Y152965D01*
X92000D01*
Y160600D01*
X68000D01*
Y138600D01*
X92000D01*
Y146235D01*
X95600D01*
X95600Y146235D01*
X96888Y146491D01*
X97979Y147221D01*
X106379Y155621D01*
X106379Y155621D01*
X107108Y156712D01*
X107365Y158000D01*
X107365Y158000D01*
Y199606D01*
X111758Y204000D01*
X112995D01*
X114832Y204761D01*
X116239Y206168D01*
X117000Y208005D01*
Y209995D01*
X116239Y211832D01*
X114832Y213239D01*
X112995Y214000D01*
D02*
G37*
G36*
X640094Y151850D02*
X637806D01*
X635693Y150975D01*
X634075Y149357D01*
X633200Y147244D01*
Y144956D01*
X634075Y142843D01*
X635693Y141225D01*
X637806Y140350D01*
X640094D01*
X642207Y141225D01*
X643825Y142843D01*
X644700Y144956D01*
Y147244D01*
X643825Y149357D01*
X642207Y150975D01*
X640094Y151850D01*
D02*
G37*
G36*
X679750Y138193D02*
X677750D01*
Y136595D01*
X673750D01*
Y138193D01*
X671750D01*
X669304Y137706D01*
X668925Y137453D01*
X670069Y136310D01*
X667240Y133482D01*
X666097Y134625D01*
X665844Y134246D01*
X665357Y131800D01*
X665844Y129354D01*
X666097Y128975D01*
X667240Y130119D01*
X670069Y127290D01*
X668925Y126147D01*
X669304Y125894D01*
X671750Y125407D01*
X673750D01*
Y127005D01*
X677750D01*
Y125407D01*
X679750D01*
X682196Y125894D01*
X682575Y126147D01*
X681432Y127290D01*
X684260Y130119D01*
X685403Y128975D01*
X685656Y129354D01*
X686143Y131800D01*
X685656Y134246D01*
X685403Y134625D01*
X684260Y133482D01*
X681432Y136310D01*
X682575Y137453D01*
X682196Y137706D01*
X679750Y138193D01*
D02*
G37*
G36*
X639450D02*
X635950D01*
Y136595D01*
X631950D01*
Y138193D01*
X628450D01*
X626003Y137706D01*
X625625Y137453D01*
X626768Y136310D01*
X623940Y133482D01*
X622797Y134625D01*
X622544Y134246D01*
X622057Y131800D01*
X622544Y129354D01*
X622797Y128975D01*
X623940Y130119D01*
X626768Y127290D01*
X625625Y126147D01*
X626003Y125894D01*
X628450Y125407D01*
X631950D01*
Y127005D01*
X635950D01*
Y125407D01*
X639450D01*
X641896Y125894D01*
X642275Y126147D01*
X641132Y127290D01*
X643960Y130119D01*
X645103Y128975D01*
X645356Y129354D01*
X645843Y131800D01*
X645356Y134246D01*
X645103Y134625D01*
X643960Y133482D01*
X641132Y136310D01*
X642275Y137453D01*
X641896Y137706D01*
X639450Y138193D01*
D02*
G37*
G36*
X259995Y186000D02*
X258005D01*
X256168Y185239D01*
X254761Y183832D01*
X254000Y181995D01*
Y180005D01*
X254761Y178168D01*
X255950Y176979D01*
X255231Y175902D01*
X254995Y176000D01*
X253005D01*
X251168Y175239D01*
X249761Y173832D01*
X249000Y171995D01*
Y170005D01*
X249761Y168168D01*
X251168Y166761D01*
X253005Y166000D01*
X254995D01*
X256832Y166761D01*
X257831Y167760D01*
X351669D01*
X352418Y167011D01*
X354255Y166250D01*
X356245D01*
X358082Y167011D01*
X359489Y168418D01*
X360250Y170255D01*
Y172245D01*
X359489Y174082D01*
X358082Y175489D01*
X356245Y176250D01*
X354255D01*
X352418Y175489D01*
X351419Y174490D01*
X258222D01*
X258089Y174730D01*
X258836Y176000D01*
X259995D01*
X261832Y176761D01*
X262706Y177635D01*
X408606D01*
X414635Y171606D01*
Y150000D01*
X414635Y150000D01*
X414892Y148712D01*
X415621Y147621D01*
X434621Y128621D01*
X434621Y128621D01*
X435712Y127891D01*
X437000Y127635D01*
X437000Y127635D01*
X470000D01*
X470000Y127635D01*
X471288Y127892D01*
X472379Y128621D01*
X484758Y141000D01*
X485995D01*
X487832Y141761D01*
X489239Y143168D01*
X490000Y145005D01*
Y146994D01*
X489239Y148832D01*
X487832Y150239D01*
X485995Y151000D01*
X484005D01*
X482168Y150239D01*
X480761Y148832D01*
X480000Y146994D01*
Y145758D01*
X468606Y134365D01*
X438394D01*
X421365Y151394D01*
Y173000D01*
X421365Y173000D01*
X421109Y174288D01*
X420379Y175379D01*
X420379Y175379D01*
X412379Y183379D01*
X411288Y184109D01*
X410000Y184365D01*
X410000Y184365D01*
X262706D01*
X261832Y185239D01*
X259995Y186000D01*
D02*
G37*
G36*
X662810Y108310D02*
X657000D01*
Y106835D01*
X653000D01*
Y108310D01*
X647190D01*
Y102500D01*
X648665D01*
Y98500D01*
X647190D01*
Y92690D01*
X653000D01*
Y94165D01*
X657000D01*
Y92690D01*
X662810D01*
Y98500D01*
X661335D01*
Y102500D01*
X662810D01*
Y108310D01*
D02*
G37*
G36*
X501253Y109520D02*
X498747D01*
X496325Y108871D01*
X494824Y108004D01*
X495899Y106929D01*
X493071Y104101D01*
X491996Y105176D01*
X491129Y103675D01*
X490480Y101253D01*
Y98747D01*
X491129Y96325D01*
X491996Y94824D01*
X493071Y95899D01*
X495899Y93071D01*
X494824Y91996D01*
X496325Y91129D01*
X498747Y90480D01*
X501253D01*
X503675Y91129D01*
X505176Y91996D01*
X504101Y93071D01*
X506929Y95899D01*
X508004Y94824D01*
X508871Y96325D01*
X509520Y98747D01*
Y101253D01*
X508871Y103675D01*
X508004Y105176D01*
X506929Y104101D01*
X504101Y106929D01*
X505176Y108004D01*
X503675Y108871D01*
X501253Y109520D01*
D02*
G37*
G36*
X92540Y111340D02*
X81270D01*
Y100070D01*
X92540D01*
Y111340D01*
D02*
G37*
G36*
X78730D02*
X67460D01*
Y100070D01*
X78730D01*
Y111340D01*
D02*
G37*
G36*
X676124Y109040D02*
X673876D01*
X671704Y108458D01*
X669756Y107334D01*
X668166Y105744D01*
X667042Y103796D01*
X666460Y101624D01*
Y99376D01*
X667042Y97204D01*
X668166Y95256D01*
X669756Y93666D01*
X671704Y92542D01*
X673876Y91960D01*
X676124D01*
X678296Y92542D01*
X680244Y93666D01*
X681834Y95256D01*
X682958Y97204D01*
X683540Y99376D01*
Y101624D01*
X682958Y103796D01*
X681834Y105744D01*
X680244Y107334D01*
X678296Y108458D01*
X676124Y109040D01*
D02*
G37*
G36*
X561995Y126000D02*
X560005D01*
X558168Y125239D01*
X556761Y123832D01*
X556000Y121995D01*
Y120005D01*
X556761Y118168D01*
X558168Y116761D01*
X560005Y116000D01*
X561242D01*
X584621Y92621D01*
X584621Y92621D01*
X585712Y91891D01*
X587000Y91635D01*
X587000Y91635D01*
X606294D01*
X607168Y90761D01*
X609005Y90000D01*
X610995D01*
X612832Y90761D01*
X614239Y92168D01*
X615000Y94005D01*
Y95995D01*
X614239Y97832D01*
X612832Y99239D01*
X610995Y100000D01*
X609005D01*
X607168Y99239D01*
X606294Y98365D01*
X588394D01*
X566000Y120758D01*
Y121995D01*
X565239Y123832D01*
X563832Y125239D01*
X561995Y126000D01*
D02*
G37*
G36*
X92540Y97530D02*
X81270D01*
Y86260D01*
X92540D01*
Y97530D01*
D02*
G37*
G36*
X78730D02*
X67460D01*
Y86260D01*
X78730D01*
Y97530D01*
D02*
G37*
G36*
X50000Y272039D02*
X30000D01*
X29220Y271884D01*
X28558Y271442D01*
X28116Y270780D01*
X27961Y270000D01*
Y80000D01*
X28116Y79220D01*
X28558Y78558D01*
X29220Y78116D01*
X30000Y77961D01*
X50000D01*
X50780Y78116D01*
X51442Y78558D01*
X51884Y79220D01*
X52039Y80000D01*
Y270000D01*
X51884Y270780D01*
X51442Y271442D01*
X50780Y271884D01*
X50000Y272039D01*
D02*
G37*
G36*
X472328Y27728D02*
X466200D01*
Y26253D01*
X462200D01*
Y27728D01*
X456072D01*
Y21600D01*
X457547D01*
Y17600D01*
X456072D01*
Y11472D01*
X462200D01*
Y12947D01*
X466200D01*
Y11472D01*
X472328D01*
Y17600D01*
X470853D01*
Y21600D01*
X472328D01*
Y27728D01*
D02*
G37*
G36*
X409224Y44000D02*
X405776D01*
X402395Y43327D01*
X399211Y42008D01*
X396344Y40093D01*
X393907Y37656D01*
X391992Y34789D01*
X390672Y31605D01*
X390000Y28224D01*
Y24776D01*
X390672Y21395D01*
X391992Y18211D01*
X393907Y15344D01*
X396344Y12907D01*
X399211Y10992D01*
X402395Y9672D01*
X405776Y9000D01*
X409224D01*
X412605Y9672D01*
X415789Y10992D01*
X418656Y12907D01*
X421093Y15344D01*
X423008Y18211D01*
X424328Y21395D01*
X425000Y24776D01*
Y28224D01*
X424328Y31605D01*
X423008Y34789D01*
X421093Y37656D01*
X418656Y40093D01*
X415789Y42008D01*
X412605Y43327D01*
X409224Y44000D01*
D02*
G37*
G36*
X94224D02*
X90776D01*
X87395Y43327D01*
X84211Y42008D01*
X81344Y40093D01*
X78907Y37656D01*
X76992Y34789D01*
X75672Y31605D01*
X75000Y28224D01*
Y24776D01*
X75672Y21395D01*
X76992Y18211D01*
X78907Y15344D01*
X81344Y12907D01*
X84211Y10992D01*
X87395Y9672D01*
X90776Y9000D01*
X94224D01*
X97605Y9672D01*
X100789Y10992D01*
X103656Y12907D01*
X106093Y15344D01*
X108008Y18211D01*
X109327Y21395D01*
X110000Y24776D01*
Y28224D01*
X109327Y31605D01*
X108008Y34789D01*
X106093Y37656D01*
X103656Y40093D01*
X100789Y42008D01*
X97605Y43327D01*
X94224Y44000D01*
D02*
G37*
G36*
X676724Y42500D02*
X673276D01*
X669895Y41828D01*
X666711Y40508D01*
X663844Y38593D01*
X661407Y36156D01*
X659492Y33289D01*
X658173Y30105D01*
X657500Y26724D01*
Y23276D01*
X658173Y19895D01*
X659492Y16711D01*
X661407Y13844D01*
X663844Y11407D01*
X666711Y9492D01*
X669895Y8173D01*
X673276Y7500D01*
X676724D01*
X680105Y8173D01*
X683289Y9492D01*
X686156Y11407D01*
X688593Y13844D01*
X690508Y16711D01*
X691827Y19895D01*
X692500Y23276D01*
Y26724D01*
X691827Y30105D01*
X690508Y33289D01*
X688593Y36156D01*
X686156Y38593D01*
X683289Y40508D01*
X680105Y41828D01*
X676724Y42500D01*
D02*
G37*
%LPD*%
G36*
X244000Y189000D02*
X232000D01*
X230000Y191000D01*
Y199000D01*
X228000Y201000D01*
X215000D01*
Y219000D01*
X222000D01*
X225000Y222000D01*
Y237000D01*
X229000Y241000D01*
X244000D01*
Y189000D01*
D02*
G37*
D20*
X-56860Y192668D02*
D03*
Y205667D02*
D03*
D21*
X-75792Y150750D02*
D03*
Y137250D02*
D03*
X-95549Y150750D02*
D03*
Y137250D02*
D03*
D22*
X-96750Y190844D02*
D03*
X-83250D02*
D03*
X-96533Y172527D02*
D03*
X-83033D02*
D03*
D60*
X638950Y203900D02*
D03*
Y146100D02*
D03*
D61*
X680000Y295000D02*
D03*
Y265000D02*
D03*
D69*
X675000Y25000D02*
D03*
X0Y90000D02*
D03*
Y100000D02*
D03*
Y110000D02*
D03*
Y120000D02*
D03*
Y130000D02*
D03*
Y140000D02*
D03*
Y150000D02*
D03*
Y160000D02*
D03*
Y170000D02*
D03*
Y180000D02*
D03*
Y190000D02*
D03*
Y200000D02*
D03*
Y210000D02*
D03*
Y220000D02*
D03*
Y230000D02*
D03*
Y240000D02*
D03*
Y250000D02*
D03*
Y260000D02*
D03*
X539302Y309838D02*
D03*
X626000Y308000D02*
D03*
X650000Y250000D02*
D03*
X675000Y200000D02*
D03*
X650000Y50000D02*
D03*
X600000Y250000D02*
D03*
X550000D02*
D03*
X500000D02*
D03*
X525000Y200000D02*
D03*
X425000D02*
D03*
Y100000D02*
D03*
X350000Y150000D02*
D03*
X375000Y100000D02*
D03*
X325000D02*
D03*
X250000Y150000D02*
D03*
X275000Y100000D02*
D03*
X175000Y300000D02*
D03*
Y100000D02*
D03*
X150000Y50000D02*
D03*
X125000Y300000D02*
D03*
X75000D02*
D03*
X355250Y171250D02*
D03*
X261000Y236000D02*
D03*
X150000Y144000D02*
D03*
X202000Y179000D02*
D03*
X172000D02*
D03*
X201000Y212000D02*
D03*
X168000Y211000D02*
D03*
X185000Y195000D02*
D03*
X561000Y121000D02*
D03*
X485000Y146000D02*
D03*
X610000Y95000D02*
D03*
X259000Y181000D02*
D03*
X273000Y203000D02*
D03*
X266000D02*
D03*
X415000Y267000D02*
D03*
X387000Y253000D02*
D03*
X348500Y242500D02*
D03*
X486000Y335000D02*
D03*
X490000Y321000D02*
D03*
X491000Y309000D02*
D03*
X470000Y321000D02*
D03*
Y312000D02*
D03*
X480000Y321000D02*
D03*
X460000D02*
D03*
X435000Y265000D02*
D03*
X232464Y202264D02*
D03*
X227000Y205000D02*
D03*
X240000Y226000D02*
D03*
X233000D02*
D03*
X42000Y287000D02*
D03*
X143000Y247000D02*
D03*
Y253000D02*
D03*
X67000Y309000D02*
D03*
Y319000D02*
D03*
X44000Y340000D02*
D03*
X42000Y68000D02*
D03*
X39000Y15000D02*
D03*
X410000Y206000D02*
D03*
X539000Y40000D02*
D03*
X538000Y60000D02*
D03*
X600000Y115000D02*
D03*
X616000Y132000D02*
D03*
X619000Y212000D02*
D03*
X662000Y265000D02*
D03*
X600000Y320000D02*
D03*
X562000Y321000D02*
D03*
X553000Y330000D02*
D03*
X453000Y335000D02*
D03*
X449000Y298000D02*
D03*
X457000Y282000D02*
D03*
X560000Y264000D02*
D03*
X517000Y265000D02*
D03*
X154000Y272000D02*
D03*
X183000Y112000D02*
D03*
X199000D02*
D03*
X410000Y142000D02*
D03*
X381000Y190000D02*
D03*
X380000Y200000D02*
D03*
X320000D02*
D03*
X321000Y187000D02*
D03*
X268000Y190000D02*
D03*
X261000Y195000D02*
D03*
Y210000D02*
D03*
X617750Y307750D02*
D03*
X535000Y315000D02*
D03*
X640000Y244000D02*
D03*
Y252000D02*
D03*
Y261000D02*
D03*
X647000Y172000D02*
D03*
Y181000D02*
D03*
Y190000D02*
D03*
X381000Y160000D02*
D03*
X319000Y150000D02*
D03*
X254000Y171000D02*
D03*
X265000Y154000D02*
D03*
X241000Y161000D02*
D03*
X218000Y146000D02*
D03*
X436000Y72000D02*
D03*
X149000Y235000D02*
D03*
X141000D02*
D03*
X190000Y150000D02*
D03*
X614000Y185000D02*
D03*
Y165000D02*
D03*
X166145Y242066D02*
D03*
X174000Y242000D02*
D03*
X130000Y244000D02*
D03*
X112000Y209000D02*
D03*
X130000Y192000D02*
D03*
X120000Y200000D02*
D03*
X-73000Y173000D02*
D03*
X-74000Y191000D02*
D03*
X-86000Y137000D02*
D03*
X-85000Y88000D02*
D03*
Y95000D02*
D03*
Y103000D02*
D03*
X-68598Y95402D02*
D03*
D70*
X-77000Y244606D02*
D03*
X-57000Y264606D02*
D03*
X-77000Y284606D02*
D03*
D71*
X80000Y251200D02*
D03*
Y98800D02*
D03*
X-33500D02*
D03*
Y251200D02*
D03*
D72*
X80000Y225800D02*
D03*
Y200400D02*
D03*
Y175000D02*
D03*
Y149600D02*
D03*
Y124200D02*
D03*
X-33500Y124200D02*
D03*
Y149600D02*
D03*
Y175000D02*
D03*
Y200400D02*
D03*
Y225800D02*
D03*
D74*
X613522Y165478D02*
Y167872D01*
X591050Y171429D02*
X609965D01*
X613522Y165478D02*
X614000Y165000D01*
X609965Y171429D02*
X613522Y167872D01*
Y184522D02*
X614000Y185000D01*
X613522Y181022D02*
Y184522D01*
X592050Y177500D02*
X610000D01*
X587500Y182050D02*
X592050Y177500D01*
X610000D02*
X613522Y181022D01*
X582500Y179979D02*
X591050Y171429D01*
X582500Y179979D02*
Y210000D01*
X572500Y220000D02*
X582500Y210000D01*
X567500Y225000D02*
X572500Y220000D01*
X572500D01*
X397500Y262500D02*
X435000Y225000D01*
X567500D01*
X387500Y272500D02*
X397500Y262500D01*
X397500D01*
X185000Y272500D02*
X387500D01*
X172621Y260121D02*
X185000Y272500D01*
X172621Y245842D02*
X173522Y244942D01*
Y242478D02*
Y244942D01*
Y242478D02*
X174000Y242000D01*
X172621Y245842D02*
Y260121D01*
X587500Y182050D02*
Y212071D01*
X569571Y230000D02*
X587500Y212071D01*
X437071Y230000D02*
X569571D01*
X182929Y277500D02*
X389571D01*
X167621Y262192D02*
X182929Y277500D01*
X389571D02*
X437071Y230000D01*
X167621Y245874D02*
Y262192D01*
X166623Y244876D02*
X167621Y245874D01*
X166623Y242544D02*
Y244876D01*
X166145Y242066D02*
X166623Y242544D01*
D75*
X254000Y171000D02*
X254125Y171125D01*
X355125D02*
X355250Y171250D01*
X254125Y171125D02*
X355125D01*
X163000Y144000D02*
X192160D01*
X140000Y167000D02*
X163000Y144000D01*
X140000Y167000D02*
Y210000D01*
X147000Y167480D02*
X160029Y154451D01*
X184738D01*
X147000Y167480D02*
Y215000D01*
X470000Y131000D02*
X485000Y146000D01*
X561000Y121000D02*
X587000Y95000D01*
X610000D01*
X418000Y150000D02*
X437000Y131000D01*
X418000Y150000D02*
Y173000D01*
X437000Y131000D02*
X470000D01*
X259000Y181000D02*
X410000D01*
X418000Y173000D01*
X221000Y153000D02*
X227000Y147000D01*
X190257Y150000D02*
X193257Y153000D01*
X221000D01*
X189188Y150000D02*
X190257D01*
X184738Y154451D02*
X189188Y150000D01*
X437000Y245000D02*
X475000D01*
X415000Y267000D02*
X437000Y245000D01*
X387000Y253000D02*
X393000Y247000D01*
X348500Y233500D02*
Y242500D01*
X491000Y217000D02*
X504000Y204000D01*
X393000Y233000D02*
Y247000D01*
X525000Y100000D02*
Y118000D01*
X409000Y217000D02*
X491000D01*
X504000Y139000D02*
X525000Y118000D01*
X504000Y139000D02*
Y204000D01*
X393000Y233000D02*
X409000Y217000D01*
X387000Y228000D02*
X403000Y212000D01*
X354000Y228000D02*
X387000D01*
X488000Y212000D02*
X497000Y203000D01*
X475000Y100000D02*
Y118000D01*
X403000Y212000D02*
X488000D01*
X348500Y233500D02*
X354000Y228000D01*
X475000Y118000D02*
X497000Y140000D01*
Y203000D01*
X379000Y161000D02*
X380000Y160000D01*
X241000Y161000D02*
X379000D01*
X294000Y150000D02*
X319000D01*
X290000Y154000D02*
X294000Y150000D01*
X265000Y154000D02*
X290000D01*
X501400Y6000D02*
X515000Y19600D01*
X452000Y6000D02*
X501400D01*
X445000Y13000D02*
X452000Y6000D01*
X445000Y13000D02*
Y42000D01*
X437000Y50000D02*
X445000Y42000D01*
X389000Y50000D02*
X437000D01*
X382000Y43000D02*
X389000Y50000D01*
X144000Y43000D02*
X382000D01*
X120000Y67000D02*
X144000Y43000D01*
X488400Y19600D02*
X489600D01*
X477000Y31000D02*
X488400Y19600D01*
X477000Y31000D02*
Y53000D01*
X472000Y58000D02*
X477000Y53000D01*
X387000Y58000D02*
X472000D01*
X377000Y48000D02*
X387000Y58000D01*
X250000Y48000D02*
X377000D01*
X227000Y71000D02*
X250000Y48000D01*
X227000Y71000D02*
Y147000D01*
X205674Y148000D02*
X207674Y146000D01*
X218000D01*
X196160Y148000D02*
X205674D01*
X192160Y144000D02*
X196160Y148000D01*
X382000Y72000D02*
X436000D01*
X370000Y60000D02*
X382000Y72000D01*
X258000Y60000D02*
X370000D01*
X240000Y78000D02*
X258000Y60000D01*
X240000Y78000D02*
Y150000D01*
X225000Y165000D02*
X240000Y150000D01*
X167000Y165000D02*
X225000D01*
X158000Y174000D02*
X167000Y165000D01*
X158000Y174000D02*
Y219502D01*
X149000Y228502D02*
X158000Y219502D01*
X149000Y228502D02*
Y235000D01*
X495000Y65000D02*
X515000Y45000D01*
X384000Y65000D02*
X495000D01*
X374000Y55000D02*
X384000Y65000D01*
X254000Y55000D02*
X374000D01*
X234000Y75000D02*
X254000Y55000D01*
X234000Y75000D02*
Y148000D01*
X222000Y160000D02*
X234000Y148000D01*
X165000Y160000D02*
X222000D01*
X153000Y172000D02*
X165000Y160000D01*
X153000Y172000D02*
Y216000D01*
X141000Y228000D02*
X153000Y216000D01*
X141000Y228000D02*
Y235000D01*
X120000Y67000D02*
Y182000D01*
X130000Y192000D01*
Y232000D02*
X147000Y215000D01*
X130000Y232000D02*
Y244000D01*
X124200Y225800D02*
X140000Y210000D01*
X80000Y225800D02*
X124200D01*
X104000Y201000D02*
X112000Y209000D01*
X104000Y158000D02*
Y201000D01*
X113000Y193000D02*
X120000Y200000D01*
X113000Y136000D02*
Y193000D01*
X101200Y124200D02*
X113000Y136000D01*
X80000Y124200D02*
X101200D01*
X95600Y149600D02*
X104000Y158000D01*
X80000Y149600D02*
X95600D01*
D76*
X625750Y307750D02*
X626000Y308000D01*
X617750Y307750D02*
X625750D01*
X542250D02*
X617750D01*
X160000Y331000D02*
X213000D01*
Y306000D02*
Y331000D01*
X143000Y247000D02*
Y253000D01*
X480000Y321000D02*
X490000D01*
X470000D02*
X480000D01*
X460000D02*
X470000D01*
X143000Y253000D02*
Y314000D01*
X160000Y331000D01*
X441000Y321000D02*
X460000D01*
X416000Y296000D02*
X441000Y321000D01*
X223000Y296000D02*
X416000D01*
X213000Y306000D02*
X223000Y296000D01*
X109000Y259000D02*
X137000D01*
X101200Y251200D02*
X109000Y259000D01*
X80000Y251200D02*
X101200D01*
X535000Y315000D02*
X542250Y307750D01*
X640000Y244000D02*
Y261000D01*
X647000Y181000D02*
Y190000D01*
Y195000D01*
X654000Y202000D02*
Y230000D01*
X640000Y244000D02*
X654000Y230000D01*
X647000Y195000D02*
X654000Y202000D01*
X647000Y172000D02*
Y181000D01*
D77*
X-73473Y172527D02*
X-73000Y173000D01*
X-83033Y172527D02*
X-73473D01*
X-83250Y190844D02*
X-83141Y190735D01*
Y172635D02*
Y190735D01*
Y172635D02*
X-83033Y172527D01*
D79*
X-95549Y137250D02*
X-75792D01*
X229271Y203000D02*
X266000D01*
X273000D01*
X227000Y205000D02*
X227271D01*
X229271Y203000D01*
X80000Y251200D02*
Y274000D01*
X67000Y287000D02*
X80000Y274000D01*
X42000Y287000D02*
X67000D01*
X-81583Y206971D02*
X-78633D01*
X-83250Y205304D02*
X-81583Y206971D01*
X-83250Y190844D02*
Y205304D01*
X-95549Y124549D02*
Y137250D01*
Y124549D02*
X-92612Y121612D01*
Y111402D02*
Y121612D01*
X-75792Y125208D02*
Y137250D01*
X-76612Y124388D02*
X-75792Y125208D01*
X-76612Y111402D02*
Y124388D01*
D80*
X-92894Y284606D02*
X-77000D01*
X-97833Y279667D02*
X-92894Y284606D01*
X-97833Y219971D02*
Y279667D01*
X-34500Y200400D02*
X-33500D01*
X-55000Y179900D02*
X-34500Y200400D01*
X-55000Y161000D02*
Y179900D01*
X-65000Y151000D02*
X-55000Y161000D01*
X-65000Y109000D02*
Y151000D01*
X-70598Y103402D02*
X-65000Y109000D01*
X-76612Y103402D02*
X-70598D01*
X-76612Y95402D02*
X-68598D01*
X-58000Y88000D02*
Y137000D01*
X-66598Y79402D02*
X-58000Y88000D01*
X-76612Y79402D02*
X-66598D01*
X-58000Y137000D02*
X-45400Y149600D01*
X-33500D01*
X-47800Y124200D02*
X-33500D01*
X-51000Y121000D02*
X-47800Y124200D01*
X-51000Y68000D02*
Y121000D01*
X-58000Y61000D02*
X-51000Y68000D01*
X-88000Y61000D02*
X-58000D01*
X-92612Y65612D02*
X-88000Y61000D01*
X-92612Y65612D02*
Y79402D01*
X-64200Y225800D02*
X-33500D01*
X-70029Y219971D02*
X-64200Y225800D01*
X-78633Y219971D02*
X-70029D01*
X-57000Y205807D02*
X-56860Y205667D01*
X-57000Y205807D02*
Y211000D01*
X-59471Y213471D02*
X-57000Y211000D01*
X-78633Y213471D02*
X-59471D01*
D81*
X407500Y26500D02*
D03*
X92500D02*
D03*
Y323500D02*
D03*
X407500D02*
D03*
D82*
X288100Y330500D02*
D03*
X262700D02*
D03*
X237300D02*
D03*
D83*
X211900D02*
D03*
D84*
X633950Y218200D02*
D03*
Y131800D02*
D03*
D85*
X675750Y218200D02*
D03*
Y131800D02*
D03*
D86*
X655000Y100500D02*
D03*
D87*
X675000D02*
D03*
D88*
X475000Y245000D02*
D03*
D89*
X525000D02*
D03*
X475000Y100000D02*
D03*
X500000D02*
D03*
X525000D02*
D03*
D90*
X443000Y175000D02*
D03*
X557000D02*
D03*
D91*
X464200Y19600D02*
D03*
D92*
Y45000D02*
D03*
X489600Y19600D02*
D03*
Y45000D02*
D03*
X515000Y19600D02*
D03*
Y45000D02*
D03*
D93*
X-97833Y213471D02*
D03*
Y219971D02*
D03*
Y206971D02*
D03*
X-78633Y219971D02*
D03*
Y213471D02*
D03*
Y206971D02*
D03*
D94*
X-92612Y95402D02*
D03*
Y111402D02*
D03*
Y103402D02*
D03*
Y87402D02*
D03*
Y79402D02*
D03*
X-76612D02*
D03*
Y87402D02*
D03*
Y111402D02*
D03*
Y95402D02*
D03*
Y103402D02*
D03*
D95*
X-84612Y111401D02*
D03*
Y79402D02*
D03*
M02*
