G04*
G04 #@! TF.GenerationSoftware,Altium Limited,Altium Designer,26.7.1 (11)*
G04*
G04 Layer_Color=16711935*
G04 Board_Origin=31496063|35433071*
%FSLAX44Y44*%
%MOMM*%
G71*
G04*
G04 #@! TF.SameCoordinates,0A52319C-2B61-419E-922E-1FB620AEF816*
G04*
G04*
G04 #@! TF.FilePolarity,Positive*
G04*
G01*
G75*
%ADD10C,0.2000*%
D10*
X-110000Y60000D02*
G03*
X-100000Y50000I10000J0D01*
G01*
X-97300Y300000D02*
G03*
X-110000Y287300I0J-12700D01*
G01*
X0Y10000D02*
G03*
X10000Y0I10000J0D01*
G01*
X12700Y350000D02*
G03*
X0Y337300I0J-12700D01*
G01*
X700000D02*
G03*
X687300Y350000I-12700J0D01*
G01*
Y0D02*
G03*
X700000Y12700I0J12700D01*
G01*
X-100000Y50000D02*
X-45000D01*
X-110000Y60000D02*
Y287300D01*
X-97300Y300000D02*
X-45000D01*
X30000Y80000D02*
Y270000D01*
Y80000D02*
X50000D01*
Y270000D01*
X30000D02*
X50000D01*
X-45000Y265000D02*
Y300000D01*
Y265000D02*
X0D01*
Y337300D01*
X-45000Y50000D02*
Y85000D01*
X0D01*
Y10000D02*
Y85000D01*
X12700Y350000D02*
X687300D01*
X700000Y12700D02*
Y337300D01*
X10000Y-0D02*
X687300Y0D01*
M02*
